<svg xmlns="http://www.w3.org/2000/svg" width="117" height="50" viewBox="0 0 117 50">
  <g fill="none" fill-rule="evenodd">
    <path fill="#525664" d="M61.7602 7.8014L56.9872 7.8014C56.3212 7.8014 55.7802 8.3424 55.7802 9.0084 55.7802 9.6754 56.3212 10.2164 56.9872 10.2164L61.7602 10.2164C65.0012 10.2164 67.6392 12.6794 67.6392 15.7074 67.6392 18.7354 65.0012 21.1994 61.7602 21.1994L56.9962 21.1994C56.3302 21.1994 55.7892 21.7394 55.7892 22.4064 55.7892 23.0734 56.3302 23.6134 56.9962 23.6134L61.7602 23.6134C66.3322 23.6134 70.0532 20.0674 70.0532 15.7074 70.0532 11.3474 66.3322 7.8014 61.7602 7.8014M99.1889 7.8102C98.5229 7.8102 97.9819 8.3502 97.9819 9.0172L97.9819 19.0252 89.0839 8.2482C88.7599 7.8552 88.2219 7.7082 87.7449 7.8812 87.2659 8.0542 86.9459 8.5082 86.9459 9.0172L86.9459 22.4602C86.9459 23.1272 87.4869 23.6672 88.1529 23.6672 88.8199 23.6672 89.3609 23.1272 89.3609 22.4602L89.3609 12.3752 98.2579 23.1522C98.5829 23.5442 99.1179 23.6902 99.5979 23.5192 100.0769 23.3472 100.3959 22.8922 100.3959 22.3832L100.3959 9.0172C100.3959 8.3502 99.8559 7.8102 99.1889 7.8102M109.1147 7.8412C109.5807 7.8412 110.0067 8.1092 110.2057 8.5312L110.2057 8.5312 116.5417 21.9082C116.7187 22.2832 116.6917 22.7222 116.4697 23.0722 116.2487 23.4212 115.8647 23.6322 115.4507 23.6322L115.4507 23.6322 115.4467 23.6322 102.9297 23.5942C102.5187 23.5932 102.1357 23.3822 101.9157 23.0352 101.6947 22.6882 101.6657 22.2522 101.8387 21.8792L101.8387 21.8792 108.0187 8.5402C108.2167 8.1152 108.6407 7.8432 109.1097 7.8412L109.1097 7.8412zM109.1267 11.8932L104.8207 21.1852 113.5407 21.2122 109.1267 11.8932zM77.9253 26.307C78.3913 26.307 78.8173 26.576 79.0163 26.998L79.0163 26.998 85.3513 40.375C85.5283 40.75 85.5013 41.189 85.2793 41.539 85.0583 41.888 84.6743 42.099 84.2603 42.099L84.2603 42.099 84.2563 42.099 71.7393 42.06C71.3283 42.059 70.9453 41.849 70.7253 41.502 70.5043 41.154 70.4753 40.719 70.6483 40.345L70.6483 40.345 76.8293 27.007C77.0273 26.582 77.4513 26.309 77.9203 26.307L77.9203 26.307zM77.9373 30.36L73.6313 39.652 82.3503 39.679 77.9373 30.36zM69.2289 30.8766C69.2289 28.3636 67.0979 26.3206 64.4789 26.3206L56.9509 26.3206C56.2839 26.3206 55.7439 26.8606 55.7439 27.5276 55.7439 28.1946 56.2839 28.7346 56.9509 28.7346L64.4789 28.7346C65.7669 28.7346 66.8149 29.6956 66.8149 30.8766 66.8149 32.0376 65.8019 32.9806 64.5449 33.0126 64.5219 33.0126 64.4999 33.0096 64.4769 33.0096L58.6589 33.0196 56.9559 33.0196C56.2899 33.0196 55.7489 33.5596 55.7489 34.2266 55.7489 34.7286 56.0549 35.1576 56.4909 35.3396 56.6359 35.4016 56.7949 35.4366 56.9629 35.4366L56.9639 35.4366 58.6619 35.4336 64.4789 35.4336C64.5009 35.4336 64.5229 35.4306 64.5449 35.4306 65.8019 35.4636 66.8149 36.4056 66.8149 37.5656 66.8149 38.7476 65.7669 39.7086 64.4789 39.7086L56.9559 39.7086C56.2899 39.7086 55.7489 40.2486 55.7489 40.9156 55.7489 41.5826 56.2899 42.1226 56.9559 42.1226L64.4789 42.1226C67.0979 42.1226 69.2289 40.0786 69.2289 37.5656 69.2289 36.2436 68.6349 35.0546 67.6939 34.2216 68.6349 33.3886 69.2289 32.1996 69.2289 30.8766M115.6723 40.007L106.2773 34.233 115.6513 28.589C116.2223 28.244 116.4053 27.503 116.0623 26.931 115.7183 26.36 114.9763 26.177 114.4053 26.52L105.0573 32.149 105.0573 27.528C105.0573 26.861 104.5163 26.32 103.8503 26.32 103.1833 26.32 102.6433 26.861 102.6433 27.528L102.6433 40.965C102.6433 41.632 103.1833 42.173 103.8503 42.173 104.5163 42.173 105.0573 41.632 105.0573 40.965L105.0573 36.316 114.4083 42.064C114.6063 42.185 114.8233 42.243 115.0393 42.243 115.4453 42.243 115.8413 42.038 116.0693 41.668 116.4183 41.1 116.2403 40.356 115.6723 40.007M76.7514 17.8698L76.7514 22.3828C76.7514 23.0498 77.2914 23.5898 77.9584 23.5898 78.6244 23.5898 79.1654 23.0498 79.1654 22.3828L79.1654 17.8698C82.4164 17.2688 84.8974 14.2938 84.8974 10.7178L84.8974 8.9208C84.8974 8.2538 84.3554 7.7138 83.6894 7.7138 83.0234 7.7138 82.4824 8.2538 82.4824 8.9208L82.4824 10.7178C82.4824 13.3948 80.4524 15.5728 77.9584 15.5728 75.4634 15.5728 73.4344 13.3948 73.4344 10.7178L73.4344 8.9068C73.4344 8.2398 72.8944 7.6998 72.2274 7.6998 71.5614 7.6998 71.0204 8.2398 71.0204 8.9068L71.0204 10.7178C71.0204 14.2938 73.4994 17.2688 76.7514 17.8698M98.6713 39.7013L93.8983 39.7013C90.6563 39.7013 88.0193 37.2373 88.0193 34.2093 88.0193 31.1813 90.6563 28.7173 93.8983 28.7173L98.6603 28.7173C99.3273 28.7173 99.8683 28.1773 99.8683 27.5103 99.8683 26.8433 99.3273 26.3033 98.6603 26.3033L93.8983 26.3033C89.3243 26.3033 85.6043 29.8493 85.6043 34.2093 85.6043 38.5693 89.3243 42.1153 93.8983 42.1153L98.6713 42.1153C99.3373 42.1153 99.8783 41.5753 99.8783 40.9083 99.8783 40.2413 99.3373 39.7013 98.6713 39.7013"/>
    <path fill="#7E2BE4" d="M4.7309 1.8893C4.9739 1.1273 4.5529.3123 3.7919.0683 3.0289-.1737 2.2139.2463 1.9709 1.0083-1.0991 10.6273-.1271 21.1883 1.8059 27.8643 3.9749 35.3573 2.5869 42.9003 1.0339 47.9283L1.0029 48.0293C.7629 48.7923 1.1869 49.6053 1.9509 49.8453 2.0949 49.8913 2.2409 49.9123 2.3859 49.9123 3.0019 49.9123 3.5719 49.5173 3.7669 48.8983L3.8079 48.7643C5.4709 43.3773 6.9569 35.2403 4.5879 27.0583 2.7739 20.7923 1.8589 10.8893 4.7309 1.8893M15.4457 2.2897C15.8867 1.6227 15.7047.7237 15.0367.2817 14.3687-.1613 13.4707.0227 13.0297.6907 7.5387 8.9867 5.3237 20.6117 7.3857 30.3067 8.5297 35.6717 8.5547 41.5837 7.4637 47.8797L7.4017 48.2367C7.2587 49.0237 7.7827 49.7767 8.5697 49.9187 8.6567 49.9357 8.7427 49.9427 8.8287 49.9427 9.5157 49.9427 10.1267 49.4517 10.2527 48.7507L10.3187 48.3727C11.4727 41.7127 11.4407 35.4317 10.2197 29.7037 8.3107 20.7297 10.3617 9.9707 15.4457 2.2897"/>
    <path fill="#7E2BE4" d="M27.8598,3.3263 C28.4718,2.8113 28.5508,1.8973 28.0358,1.2853 C27.5208,0.6723 26.6068,0.5953 25.9948,1.1093 C16.6158,9.0003 11.3838,21.7173 12.9778,32.7543 C13.6758,37.5973 13.7928,42.8333 13.3238,48.3163 C13.2548,49.1133 13.8458,49.8143 14.6428,49.8833 C14.6848,49.8873 14.7258,49.8893 14.7678,49.8893 C15.5118,49.8893 16.1448,49.3183 16.2098,48.5633 C16.6988,42.8613 16.5758,37.4023 15.8448,32.3403 C14.4118,22.4143 19.3528,10.4833 27.8598,3.3263"/>
    <path fill="#7E2BE4" d="M36.9613,8.2238 C37.6293,7.7828 37.8113,6.8828 37.3693,6.2168 C36.9283,5.5498 36.0293,5.3668 35.3613,5.8088 C24.2953,13.1408 17.7053,24.6818 18.5743,35.2098 C18.9243,39.4558 19.0333,43.7868 18.9083,48.4478 C18.8883,49.2468 19.5193,49.9128 20.3183,49.9338 C20.3323,49.9338 20.3453,49.9338 20.3573,49.9338 C21.1403,49.9338 21.7843,49.3108 21.8063,48.5238 C21.9333,43.7578 21.8193,39.3248 21.4613,34.9718 C20.8673,27.7638 24.5693,16.4338 36.9613,8.2238"/>
    <path fill="#7E2BE4" d="M42.4242,14.9381 C43.1052,14.5181 43.3172,13.6261 42.8972,12.9441 C42.4782,12.2631 41.5842,12.0511 40.9032,12.4721 C30.0282,19.1781 23.9312,28.3631 24.1762,37.6721 C24.2762,41.4271 24.3162,47.8701 24.3162,47.9351 C24.3202,48.7311 24.9682,49.3751 25.7652,49.3751 L25.7732,49.3751 C26.5732,49.3701 27.2182,48.7171 27.2132,47.9171 C27.2132,47.8531 27.1742,41.3801 27.0732,37.5961 C26.7642,25.8791 37.7052,17.8481 42.4242,14.9381"/>
    <path fill="#7E2BE4" d="M43.4711,19.8971 C37.3591,23.7771 30.0241,30.4391 29.7831,40.1411 C29.7311,42.3211 29.6981,44.1471 29.6830711,46.1681 C29.6781,46.9681 30.3221,47.6211 31.1211,47.6261 L31.1321,47.6261 C31.9271,47.6261 32.5751,46.9851 32.5801,46.1891 C32.5941,44.1851 32.6271,42.3741 32.6811,40.2121 C32.8881,31.7881 39.5071,25.8451 45.0241,22.3431 C45.6991,21.9141 45.9001,21.0191 45.4701,20.3431 C45.0411,19.6681 44.1461,19.4681 43.4711,19.8971"/>
    <path fill="#7E2BE4" d="M43.2475,28.4733 C38.5445,32.4353 35.9145,37.0553 35.4285,42.2033 C35.3525,43.0003 35.9375,43.7073 36.7345,43.7823 C36.7805,43.7863 36.8265,43.7883 36.8725,43.7883 C37.6105,43.7883 38.2415,43.2253 38.3125,42.4753 C38.7255,38.1103 41.0135,34.1443 45.1145,30.6883 C45.7265,30.1733 45.8055,29.2593 45.2895,28.6473 C44.7725,28.0363 43.8595,27.9563 43.2475,28.4733"/>
  </g>
</svg>
