<?xml version="1.0" encoding="utf-8"?>
<!-- Generator: Adobe Illustrator 16.0.0, SVG Export Plug-In . SVG Version: 6.00 Build 0)  -->
<!DOCTYPE svg PUBLIC "-//W3C//DTD SVG 1.1//EN" "http://www.w3.org/Graphics/SVG/1.1/DTD/svg11.dtd">
<svg version="1.1" id="Layer_1" xmlns="http://www.w3.org/2000/svg" xmlns:xlink="http://www.w3.org/1999/xlink" x="0px" y="0px"
	 width="1707px" height="519.052px" viewBox="0 116.283 1707 519.052" enable-background="new 0 116.283 1707 519.052"
	 xml:space="preserve">
<g>
	<g>
		<path fill="#221F1F" d="M494.855,320.172V258.69c0-12.247,5.373-19.245,19.244-19.245s19.244,6.873,19.244,19.245v60.732
			c0,4.999-0.375,10.372-2.249,14.996l-73.354,187.07c-3.874,9.622-7.248,16.869-19.244,16.869
			c-11.872,0-15.371-7.247-19.245-16.869l-73.354-187.07c-1.874-4.624-2.249-9.997-2.249-14.996V258.69
			c0-12.247,5.374-19.245,19.244-19.245c13.871,0,19.245,6.873,19.245,19.245v61.482l56.484,146.707L494.855,320.172z"/>
		<path fill="#E92247" d="M695.296,259.189c3.125-10.372,7.248-19.619,19.62-19.619c12.621,0,17.245,9.622,19.994,19.619
			l74.103,260.049c2.75,9.247-7.622,19.244-18.494,19.244c-11.871,0-17.995-9.997-20.744-19.244l-14.246-46.111h-81.851
			l-14.621,46.111c-2.749,9.247-8.872,19.244-20.743,19.244c-10.747,0-21.119-9.997-18.495-19.244L695.296,259.189z M715.29,330.544
			h-0.749L684.55,434.639h60.357L715.29,330.544z"/>
		<path fill="#E92247" d="M1287.248,499.994h56.483c9.997,0,19.244,5.373,19.244,19.244s-9.247,19.244-19.244,19.244H1192.4
			c-9.997,0-19.244-5.373-19.244-19.244s9.247-19.244,19.244-19.244h56.483v-222.06H1192.4c-9.997,0-19.244-5.374-19.244-19.244
			c0-13.871,9.247-19.245,19.244-19.245h151.331c9.997,0,19.244,5.374,19.244,19.245c0,13.871-9.247,19.244-19.244,19.244h-56.483
			V499.994L1287.248,499.994z"/>
		<path fill="#221F1F" d="M1488.189,277.934v13.871c0,12.247-5.374,19.245-19.245,19.245s-19.244-6.873-19.244-19.245V239.57
			h189.819v52.235c0,12.247-5.373,19.245-19.244,19.245s-19.244-6.873-19.244-19.245v-13.871h-37.239v241.179
			c0,12.247-5.374,19.244-19.244,19.244c-13.871,0-19.245-6.873-19.245-19.244V277.934H1488.189z"/>
		<path fill="#221F1F" d="M935.101,519.238c0,12.246-5.373,19.244-19.244,19.244s-19.244-6.873-19.244-19.244V239.57h129.087
			c30.366,0,60.732,21.494,60.732,55.734v26.492c0,36.115-29.991,54.484-60.732,54.484h-35.364l86.475,123.714
			c4.249,5.748,9.622,13.121,9.622,20.369c0,10.747-8.872,17.994-19.619,17.994c-7.623,0-12.621-4.623-16.87-10.746L943.849,376.28
			h-8.872v142.958H935.101z M935.101,337.917h85.226c10.747,0,27.617-0.75,27.617-16.121v-26.492
			c0-15.371-15.745-17.245-27.242-17.245h-85.601V337.917z"/>
		<g>
			<path fill="#221F1F" d="M201.441,239.57c2.375,4.874,3.624,10.372,3.624,16.245c0,8.248-2.624,15.996-7.248,22.244h26.742v13.871
				c0,12.247,5.374,19.245,19.245,19.245s19.244-6.873,19.244-19.245v-52.235h-61.607V239.57z M129.712,255.815
				c0-5.873,1.375-11.372,3.624-16.245H73.229v52.235c0,12.247,5.374,19.245,19.245,19.245c13.871,0,19.244-6.873,19.244-19.245
				v-13.871h25.243C132.461,271.686,129.712,264.063,129.712,255.815z"/>
			<g>
				<g>
					<path fill="#221F1F" d="M238.43,501.369c-18.12-16.62-34.74-19.245-48.111-21.369c-1.75-0.25-3.499-0.625-5.124-0.875
						c-14.621-2.624-18.87-11.121-21.619-18.744c-2.874-7.748-3.249-38.614-3.249-39.988h2.249c0,0.375,0.5,31.865,3.125,39.238
						c2.749,7.373,6.498,14.871,19.869,17.245c1.625,0.25,3.374,0.625,5.124,0.875c13.621,2.249,30.616,4.998,49.235,21.993
						L238.43,501.369z"/>
				</g>
				<g>
					<path fill="#221F1F" d="M240.305,501.369c-12.871-9.872-34.74-23.368-48.861-28.742c-3.749-1.374-7.248-2.499-10.622-3.624
						c-10.622-3.374-19.12-5.998-22.993-14.995c-4.874-11.247-2.25-35.864-2.25-36.864l2,4.374
						c-0.375-0.75-2.375,20.743,2.249,31.615c3.499,7.998,11.122,10.372,21.619,13.746c3.374,1.125,6.873,2.249,10.747,3.624
						c14.371,5.373,36.489,18.994,49.485,29.116L240.305,501.369z"/>
				</g>
				<path fill="#221F1F" d="M243.429,487.123c-0.125-0.375-0.25-0.75-0.5-1c-4.624-5.748-56.858-71.104-57.983-71.979
					c-1.25-1-5.374,0-5.374,0l-0.375,0.999c0,0,4.624-0.749,5.748,1.625c1.5,3.499-4.749,9.497-10.747,13.871
					c-5.874,4.373-12.497,5.623-15.371,1.999c-1.625-1.999,2.374-6.123,2.374-6.123l-0.75-0.625c0,0-1.375,1.125-2.375,2.999
					c-0.75,1.5-0.875,3.249-0.875,4.374c0,0.75,0.375,1.5,0.875,1.874l76.103,61.982c0.625,0.5,1.5,0.75,2.249,0.5
					c1.375-0.375,3.499-1.25,5.124-2.999C244.179,491.996,243.804,488.497,243.429,487.123z M169.95,442.136
					c-1.125,0-2-0.874-2-1.999s0.875-1.999,2-1.999c1.125,0,2,0.874,2,1.999S171.075,442.136,169.95,442.136z M235.681,482.624
					c-0.875,0-1.5-0.625-1.5-1.499c0-0.75,0.625-1.5,1.5-1.5c0.875,0,1.5,0.625,1.5,1.5
					C237.181,481.874,236.556,482.624,235.681,482.624z"/>
				<g>
					<path fill="#221F1F" d="M150.206,321.047c0,0-5.249,3.749-8.623,0.999c-4.499-3.624-5.499-11.871-2.999-25.117
						c2-10.622,4.999-19.37,6.623-23.868c-1-0.125-1.625-0.75-1.875-1.5c-1.625,4.249-4.874,13.496-6.998,24.868
						c-2.624,14.121-1.375,23.118,3.874,27.367c1.375,1.124,2.999,1.624,4.499,1.624c3.624,0,6.748-2.374,6.998-2.499
						L150.206,321.047z"/>
				</g>
				<g>
					<path fill="#221F1F" d="M147.707,339.791c-1,0-2-0.125-2.875-0.625c-2-1.124-5.249-4.373-4.999-13.621
						c0.5-16.62,1.75-25.242,3.249-37.239c0.5-3.749,1-7.873,1.625-12.622l2.25,0.25c-0.625,4.749-1.125,8.873-1.625,12.747
						c-1.625,11.872-2.75,20.494-3.249,36.989c-0.25,5.873,1.25,9.997,3.749,11.497c1.125,0.625,3.374,0.25,4.624-0.125l0.625,2.124
						C150.956,339.291,149.331,339.791,147.707,339.791z"/>
				</g>
				<g>
					<rect x="161.453" y="393.525" fill="#221F1F" width="14.121" height="3.374"/>
					<path fill="#221F1F" d="M189.319,306.051l-9.122-2.249v-18.995H155.83v18.995l-7.498,2.249l1.75,39.363h-3.999v6.498h4.249
						l0.125,2.125h-3.499v3.499h3.624l0.125,2.624h-3.374v6.873h3.624l1.874,43.987h3.999c-0.875,1.624-1.375,3.499-1.375,5.498
						c0,6.748,5.499,12.121,12.122,12.121c1.749,0,3.499-0.374,4.999-1.124c0.875-8.873,0.375-16.495,0.375-16.62h2.999
						c0,0.25,0.375,6.373-0.125,14.37c2.374-2.249,3.874-5.373,3.874-8.872c0-1.999-0.5-3.874-1.375-5.498h4.749L189.319,306.051z
						 M155.33,410.271c-0.875,0-1.625-0.75-1.625-1.625c0-0.874,0.75-1.624,1.625-1.624s1.625,0.75,1.625,1.624
						C156.954,409.521,156.204,410.271,155.33,410.271z M175.449,387.527c0.875,0,1.625,0.75,1.625,1.624
						c0,0.875-0.75,1.625-1.625,1.625c-0.875,0-1.625-0.75-1.625-1.625C173.949,388.277,174.574,387.527,175.449,387.527z
						 M171.95,387.527c0.875,0,1.625,0.75,1.625,1.624c0,0.875-0.75,1.625-1.625,1.625s-1.625-0.75-1.625-1.625
						C170.45,388.277,171.075,387.527,171.95,387.527z M168.451,387.527c0.875,0,1.625,0.75,1.625,1.624
						c0,0.875-0.75,1.625-1.625,1.625s-1.625-0.75-1.625-1.625C166.951,388.277,167.576,387.527,168.451,387.527z M164.952,387.527
						c0.875,0,1.625,0.75,1.625,1.624c0,0.875-0.75,1.625-1.625,1.625c-0.875,0-1.625-0.75-1.625-1.625
						C163.452,388.277,164.077,387.527,164.952,387.527z M161.453,387.527c0.875,0,1.625,0.75,1.625,1.624
						c0,0.875-0.75,1.625-1.625,1.625c-0.875,0-1.625-0.75-1.625-1.625C159.953,388.277,160.578,387.527,161.453,387.527z
						 M177.073,401.398h-17.12v-2.375h17.12V401.398z M177.073,398.398h-17.12v-6.373h17.12V398.398z M180.697,410.271
						c-0.875,0-1.625-0.75-1.625-1.625c0-0.874,0.75-1.624,1.625-1.624c0.875,0,1.625,0.75,1.625,1.624
						C182.197,409.521,181.572,410.271,180.697,410.271z"/>
				</g>
				<path fill="#221F1F" d="M242.554,486.873c0,0,1.5-1.5,3.999-1.125c1.125,0.25,5.874,5.998,5.874,5.998s0.25,1.125,1.25,1.125
					c1.25-0.125,1.125-1.125,1.125-1.125l18.37-0.125l8.873,5.124v1.999h-1.375l-7.623-3.499l-13.496,3c0,0-1.749,0.749-1.125,2.874
					c0.5,1.749,3.749,1.749,3.749,1.749l12.621,10.497l6.374,13.996l-0.625,0.999l-1.75-0.249l-5.624-12.372l-10.497-5.623
					l-0.875,0.125l-0.25,1.125l7.998,8.872l3.624,15.87l-1,0.875l-1.25-0.625l-3.999-14.621l-6.998-5.123h-1.25l-0.25,0.75
					l5.874,7.872l1.5,13.996l-0.625,0.75l-1.375-0.5l-2.25-12.496l-8.373-8.248h-1l-0.125,1l5.124,8.123l0.375,11.371l-0.875,0.375
					l-1.125-0.25l-1-10.247l-9.247-8.622l-1.375-0.75l-12.372-17.495c0,0-0.375-4.248,1.75-6.248
					c1.375-1.249,0.625,0.625,0.625,0.625s-1.875,3.874-0.125,4.873c1.125,0.75,7.123-0.999,10.497-5.873
					c2.249-3.249,2.999-5.998,2.499-7.622c-0.625-1.75-3.999-0.875-3.999-0.875L242.554,486.873z"/>
				<g>
					<path fill="#221F1F" d="M167.451,288.056c-17.87,0-32.366-14.496-32.366-32.366c0-17.87,14.496-32.365,32.366-32.365
						c17.87,0,32.365,14.496,32.365,32.365C199.691,273.561,185.196,288.056,167.451,288.056z M167.451,227.949
						c-15.371,0-27.742,12.497-27.742,27.742c0,15.246,12.497,27.742,27.742,27.742c15.245,0,27.742-12.497,27.742-27.742
						C195.193,240.445,182.696,227.949,167.451,227.949z"/>
				</g>
				<g>
					<circle fill="#221F1F" cx="167.451" cy="255.816" r="8.622"/>
					<path fill="#221F1F" d="M167.451,231.948c-13.121,0-23.743,10.622-23.743,23.743c0,13.122,10.622,23.743,23.743,23.743
						s23.743-10.622,23.743-23.743C191.194,242.694,180.572,231.948,167.451,231.948z M167.451,269.062
						c-7.248,0-13.246-5.873-13.246-13.246c0-7.248,5.873-13.246,13.246-13.246c7.248,0,13.246,5.874,13.246,13.246
						C180.572,263.063,174.699,269.062,167.451,269.062z"/>
				</g>
			</g>
		</g>
	</g>
</g>
</svg>
