<?xml version="1.0" encoding="UTF-8" standalone="no"?>
<svg
   xmlns:dc="http://purl.org/dc/elements/1.1/"
   xmlns:cc="http://creativecommons.org/ns#"
   xmlns:rdf="http://www.w3.org/1999/02/22-rdf-syntax-ns#"
   xmlns:svg="http://www.w3.org/2000/svg"
   xmlns="http://www.w3.org/2000/svg"
   xmlns:sodipodi="http://sodipodi.sourceforge.net/DTD/sodipodi-0.dtd"
   xmlns:inkscape="http://www.inkscape.org/namespaces/inkscape"
   height="100px"
   width="100px"
   fill="#4D4D4D"
   version="1.1"
   x="0px"
   y="0px"
   viewBox="0 0 130 130"
   style="enable-background:new 0 0 130 130;"
   xml:space="preserve"
   id="svg16"
   sodipodi:docname="mathbrowse.svg"
   inkscape:version="1.0.1 (3bc2e813f5, 2020-09-07)"><metadata
     id="metadata22"><rdf:RDF><cc:Work
         rdf:about=""><dc:format>image/svg+xml</dc:format><dc:type
           rdf:resource="http://purl.org/dc/dcmitype/StillImage" /><dc:title></dc:title></cc:Work></rdf:RDF></metadata><defs
     id="defs20" /><sodipodi:namedview
     pagecolor="#ffffff"
     bordercolor="#666666"
     borderopacity="1"
     objecttolerance="10"
     gridtolerance="10"
     guidetolerance="10"
     inkscape:pageopacity="0"
     inkscape:pageshadow="2"
     inkscape:window-width="1920"
     inkscape:window-height="1017"
     id="namedview18"
     showgrid="false"
     inkscape:zoom="7.35"
     inkscape:cx="34.217687"
     inkscape:cy="50"
     inkscape:window-x="1912"
     inkscape:window-y="-8"
     inkscape:window-maximized="1"
     inkscape:current-layer="text853" /><g
     id="g14"><path
       d="M126.9248047,0H3.074707C1.3793945,0,0,1.3798828,0,3.0751953v123.8496094C0,128.6201172,1.3793945,130,3.074707,130   h123.8500977C128.6206055,130,130,128.6201172,130,126.9248047V3.0751953C130,1.3798828,128.6206055,0,126.9248047,0z    M128,126.9248047C128,127.5175781,127.5175781,128,126.9248047,128H3.074707C2.4819336,128,2,127.5175781,2,126.9248047   V30.6533203h126V126.9248047z M128,28.6533203H2V3.0751953C2,2.4824219,2.4819336,2,3.074707,2h123.8500977   C127.5175781,2,128,2.4824219,128,3.0751953V28.6533203z"
       id="path2" /><path
       d="M65.0800781,14.3261719H12.1630859c-0.5522461,0-1,0.4472656-1,1s0.4477539,1,1,1h52.9169922c0.5522461,0,1-0.4472656,1-1   S65.6323242,14.3261719,65.0800781,14.3261719z"
       id="path4" /><path
       d="M117.3300781,14.3261719h-7.4091797c-0.5522461,0-1,0.4472656-1,1s0.4477539,1,1,1h7.4091797c0.5522461,0,1-0.4472656,1-1   S117.8823242,14.3261719,117.3300781,14.3261719z"
       id="path6" /><path
       d="M100.3676758,14.3261719h-7.4086914c-0.5522461,0-1,0.4472656-1,1s0.4477539,1,1,1h7.4086914c0.5522461,0,1-0.4472656,1-1   S100.9199219,14.3261719,100.3676758,14.3261719z"
       id="path8" /><path
       d="M83.4052734,14.3261719H75.996582c-0.5522461,0-1,0.4472656-1,1s0.4477539,1,1,1h7.4086914c0.5522461,0,1-0.4472656,1-1   S83.9575195,14.3261719,83.4052734,14.3261719z"
       id="path10" /></g><text
     xml:space="preserve"
     style="font-style:normal;font-weight:normal;font-size:52px;line-height:1.25;font-family:sans-serif;letter-spacing:0px;word-spacing:0px;fill:#000000;fill-opacity:1;stroke:none;stroke-width:1.3"
     x="20.693878"
     y="71.45578"
     id="text849"><tspan
       sodipodi:role="line"
       id="tspan847"
       x="20.693878"
       y="71.45578"
       style="stroke-width:1.3" /></text><g
     aria-label="∑"
     id="text853"
     style="font-style:normal;font-weight:normal;font-size:92.3678px;line-height:1.25;font-family:sans-serif;letter-spacing:0px;word-spacing:0px;fill:#4d4d4d;fill-opacity:1;stroke:none;stroke-width:2.3092"><path
       d="m 92.547771,117.11175 h -53.30993 v -8.61438 L 69.591126,78.369589 39.688856,49.910566 v -8.479075 h 51.099958 v 7.937857 H 50.60341 l 29.225748,27.10598 v 3.247305 L 49.791584,109.17389 h 42.756187 z"
       style="fill:#4d4d4d;fill-opacity:1;stroke-width:2.3092"
       id="path855" /></g></svg>
