<?xml version="1.0" encoding="UTF-8" standalone="no"?>
<!DOCTYPE svg PUBLIC "-//W3C//DTD SVG 1.1//EN" "http://www.w3.org/Graphics/SVG/1.1/DTD/svg11.dtd"><svg width="100%"
    height="100%" viewBox="0 0 394 68" version="1.1" xmlns="http://www.w3.org/2000/svg"
    xmlns:xlink="http://www.w3.org/1999/xlink" xml:space="preserve" xmlns:serif="http://www.serif.com/"
    style="fill-rule:evenodd;clip-rule:evenodd;stroke-linejoin:round;stroke-miterlimit:2;">
    <rect id="Artboard1" x="0" y="0.234" width="393.976" height="67.047" style="fill:none;" />
    <g id="AM">
        <g>
            <clipPath id="_clip1">
                <path
                    d="M408.405,67.299l0,8.585l-152.308,-0l0,-8.585l152.308,-0Zm0,-5.074l0,4.024l-152.308,0l0,-4.024l152.308,-0Zm0,-5.075l0,4.025l-152.308,-0l0,-4.025l152.308,0Zm0,-5.074l0,4.025l-152.308,-0l0,-4.025l152.308,0Zm0,-5.074l0,4.024l-152.308,0l0,-4.024l152.308,-0Zm0,-5.074l0,4.024l-152.308,0l0,-4.024l152.308,-0Zm0,-5.075l0,4.025l-152.308,-0l0,-4.025l152.308,0Zm0,-5.074l0,4.025l-152.308,-0l0,-4.025l152.308,0Zm0,-5.074l0,4.024l-152.308,0l0,-4.024l152.308,-0Zm0,-5.074l0,4.024l-152.308,0l0,-4.024l152.308,-0Zm0,-5.075l0,4.025l-152.308,-0l0,-4.025l152.308,0Zm0,-5.074l0,4.025l-152.308,-0l0,-4.025l152.308,0Zm0,-5.074l0,4.024l-152.308,0l0,-4.024l152.308,-0Zm0,-5.074l0,4.024l-152.308,0l0,-4.024l152.308,-0Zm0,-5.075l0,4.025l-152.308,-0l0,-4.025l152.308,0Zm0,-11.025l0,9.976l-152.308,-0l0,-9.976l152.308,0Z" />
            </clipPath>
            <g clip-path="url(#_clip1)">
                <g>
                    <path
                        d="M298.514,1.406c1.234,0 2.174,0.339 2.821,1.018c0.648,0.678 1.095,1.356 1.342,2.035l20.165,58.274c0.246,0.617 0.37,1.08 0.37,1.388c-0,0.555 -0.201,1.033 -0.602,1.434c-0.4,0.401 -0.878,0.601 -1.433,0.601l-11.655,-0c-1.234,-0 -2.112,-0.262 -2.637,-0.786c-0.524,-0.524 -0.847,-1.033 -0.971,-1.527l-2.59,-7.677l-24.605,-0l-2.59,7.677c-0.123,0.494 -0.447,1.003 -0.971,1.527c-0.524,0.524 -1.403,0.786 -2.636,0.786l-11.655,-0c-0.555,-0 -1.033,-0.2 -1.434,-0.601c-0.401,-0.401 -0.601,-0.879 -0.601,-1.434c-0,-0.308 0.123,-0.771 0.37,-1.388l20.165,-58.274c0.246,-0.679 0.694,-1.357 1.341,-2.035c0.648,-0.679 1.588,-1.018 2.821,-1.018l14.985,0Zm-14.985,40.423l14.985,-0l-7.492,-22.2l-7.493,22.2Z"
                        style="fill:#66b1ff;fill-rule:nonzero;" />
                    <path
                        d="M357.043,50.616c-0.925,0 -1.649,-0.262 -2.173,-0.786c-0.524,-0.524 -0.941,-1.033 -1.249,-1.526l-8.695,-15.263l-0,30.617c-0,0.679 -0.247,1.265 -0.74,1.758c-0.493,0.493 -1.079,0.74 -1.758,0.74l-12.117,-0c-0.678,-0 -1.264,-0.247 -1.757,-0.74c-0.494,-0.493 -0.74,-1.079 -0.74,-1.758l-0,-59.754c-0,-0.679 0.246,-1.264 0.74,-1.758c0.493,-0.493 1.079,-0.74 1.757,-0.74l10.73,0c1.233,0 2.158,0.339 2.775,1.018c0.617,0.678 1.017,1.171 1.202,1.48l14.985,25.622l14.985,-25.622c0.185,-0.309 0.586,-0.802 1.203,-1.48c0.617,-0.679 1.541,-1.018 2.775,-1.018l10.73,0c0.678,0 1.264,0.247 1.757,0.74c0.494,0.494 0.74,1.079 0.74,1.758l0,59.754c0,0.679 -0.246,1.265 -0.74,1.758c-0.493,0.493 -1.079,0.74 -1.757,0.74l-12.118,-0c-0.678,-0 -1.264,-0.247 -1.757,-0.74c-0.493,-0.493 -0.74,-1.079 -0.74,-1.758l-0,-30.617l-8.695,15.263c-0.308,0.493 -0.725,1.002 -1.249,1.526c-0.524,0.524 -1.249,0.786 -2.174,0.786l-5.92,0Z"
                        style="fill:#66b1ff;fill-rule:nonzero;" />
                </g>
            </g>
        </g>
        <g id="Select">
            <path
                d="M24.924,0.776c3.705,-0 6.969,0.577 9.793,1.73c2.824,1.154 5.223,2.566 7.197,4.236c1.973,1.67 3.476,3.462 4.509,5.375c1.032,1.913 1.579,3.629 1.639,5.147c0.061,0.546 -0.121,1.017 -0.546,1.412c-0.425,0.395 -0.911,0.592 -1.458,0.592l-3.735,-0c-0.668,-0 -1.199,-0.122 -1.594,-0.364c-0.394,-0.243 -0.804,-0.79 -1.229,-1.64c-0.304,-0.607 -0.805,-1.382 -1.504,-2.323c-0.698,-0.941 -1.639,-1.852 -2.823,-2.733c-1.185,-0.881 -2.627,-1.64 -4.327,-2.277c-1.701,-0.638 -3.675,-0.957 -5.922,-0.957c-1.7,0 -3.325,0.198 -4.873,0.592c-1.549,0.395 -2.93,0.987 -4.145,1.777c-1.215,0.789 -2.186,1.776 -2.915,2.96c-0.729,1.184 -1.093,2.566 -1.093,4.145c-0,1.579 0.349,2.915 1.047,4.008c0.699,1.093 1.822,2.08 3.371,2.961c1.549,0.88 3.507,1.685 5.876,2.414c2.368,0.729 5.253,1.548 8.654,2.459c3.461,0.911 6.391,1.913 8.79,3.007c2.399,1.093 4.358,2.322 5.876,3.689c1.518,1.366 2.626,2.945 3.325,4.737c0.698,1.791 1.047,3.811 1.047,6.058c0,2.732 -0.592,5.238 -1.776,7.515c-1.184,2.277 -2.839,4.236 -4.965,5.876c-2.125,1.639 -4.691,2.915 -7.697,3.826c-3.006,0.911 -6.362,1.366 -10.066,1.366c-3.523,-0 -6.772,-0.516 -9.747,-1.549c-2.976,-1.032 -5.527,-2.368 -7.652,-4.008c-2.126,-1.64 -3.811,-3.461 -5.056,-5.465c-1.245,-2.005 -1.898,-3.978 -1.959,-5.922c0,-0.546 0.198,-1.017 0.593,-1.412c0.394,-0.394 0.865,-0.592 1.411,-0.592l3.735,0c0.608,0 1.139,0.122 1.595,0.365c0.455,0.243 0.865,0.789 1.229,1.639c0.365,0.851 0.926,1.777 1.686,2.779c0.759,1.002 1.776,1.943 3.051,2.824c1.276,0.88 2.824,1.624 4.646,2.232c1.822,0.607 3.978,0.91 6.468,0.91c2.125,0 4.145,-0.242 6.058,-0.728c1.913,-0.486 3.598,-1.185 5.055,-2.095c1.458,-0.911 2.612,-2.005 3.462,-3.28c0.85,-1.275 1.275,-2.702 1.275,-4.281c0,-1.579 -0.485,-2.931 -1.457,-4.054c-0.972,-1.124 -2.369,-2.141 -4.191,-3.052c-1.821,-0.911 -4.053,-1.746 -6.695,-2.505c-2.642,-0.759 -5.633,-1.564 -8.973,-2.414c-3.036,-0.789 -5.617,-1.746 -7.743,-2.869c-2.125,-1.124 -3.856,-2.414 -5.192,-3.872c-1.336,-1.457 -2.293,-3.067 -2.87,-4.828c-0.577,-1.761 -0.865,-3.674 -0.865,-5.739c-0,-2.247 0.455,-4.433 1.366,-6.559c0.911,-2.125 2.262,-4.008 4.054,-5.648c1.791,-1.639 4.038,-2.96 6.741,-3.962c2.702,-1.002 5.876,-1.503 9.519,-1.503Z"
                style="fill:#28282d;fill-rule:nonzero;" />
            <path
                d="M55.601,37.214c0.242,-2.794 0.911,-5.405 2.004,-7.835c1.093,-2.429 2.52,-4.554 4.281,-6.376c1.761,-1.822 3.872,-3.249 6.331,-4.282c2.46,-1.032 5.208,-1.548 8.244,-1.548c3.28,-0 6.21,0.531 8.791,1.594c2.581,1.063 4.782,2.596 6.604,4.6c1.822,2.004 3.219,4.433 4.191,7.288c0.971,2.854 1.457,6.042 1.457,9.565l0,2.459c0,0.668 -0.243,1.245 -0.729,1.731c-0.485,0.486 -1.062,0.729 -1.73,0.729l-31.337,-0l0,0.546c0.121,4.13 1.382,7.303 3.78,9.52c2.399,2.217 5.39,3.325 8.973,3.325c3.34,-0 5.846,-0.471 7.516,-1.412c1.67,-0.941 3.021,-1.989 4.053,-3.143c0.486,-0.486 0.911,-0.82 1.276,-1.002c0.364,-0.182 0.911,-0.273 1.639,-0.273l2.733,-0c0.668,-0 1.276,0.243 1.822,0.729c0.547,0.485 0.759,1.062 0.638,1.73c-0.182,1.093 -0.699,2.293 -1.549,3.599c-0.85,1.305 -2.08,2.52 -3.689,3.643c-1.609,1.124 -3.614,2.065 -6.012,2.824c-2.399,0.759 -5.208,1.139 -8.427,1.139c-3.036,-0 -5.769,-0.531 -8.198,-1.594c-2.429,-1.063 -4.54,-2.52 -6.331,-4.373c-1.792,-1.852 -3.234,-4.038 -4.327,-6.559c-1.093,-2.52 -1.762,-5.268 -2.004,-8.244c-0.304,-2.793 -0.304,-5.587 -0,-8.38Zm8.107,0.273l25.598,-0l-0,-0.273c-0,-3.705 -1.169,-6.665 -3.507,-8.882c-2.339,-2.217 -5.451,-3.325 -9.338,-3.325c-1.761,-0 -3.401,0.288 -4.919,0.865c-1.518,0.577 -2.854,1.397 -4.008,2.46c-1.154,1.063 -2.065,2.353 -2.733,3.871c-0.668,1.519 -1.032,3.189 -1.093,5.011l0,0.273Z"
                style="fill:#28282d;fill-rule:nonzero;" />
            <path
                d="M112.719,63.714c-0,0.668 -0.243,1.245 -0.729,1.731c-0.486,0.486 -1.063,0.728 -1.731,0.728l-3.37,0c-0.668,0 -1.245,-0.242 -1.731,-0.728c-0.486,-0.486 -0.729,-1.063 -0.729,-1.731l-0,-59.758c-0,-0.668 0.243,-1.245 0.729,-1.731c0.486,-0.486 1.063,-0.729 1.731,-0.729l3.37,0c0.668,0 1.245,0.243 1.731,0.729c0.486,0.486 0.729,1.063 0.729,1.731l-0,59.758Z"
                style="fill:#28282d;fill-rule:nonzero;" />
            <path
                d="M119.754,37.214c0.243,-2.794 0.911,-5.405 2.004,-7.835c1.093,-2.429 2.521,-4.554 4.282,-6.376c1.761,-1.822 3.871,-3.249 6.331,-4.282c2.459,-1.032 5.207,-1.548 8.244,-1.548c3.279,-0 6.21,0.531 8.791,1.594c2.581,1.063 4.782,2.596 6.604,4.6c1.822,2.004 3.219,4.433 4.19,7.288c0.972,2.854 1.458,6.042 1.458,9.565l-0,2.459c-0,0.668 -0.243,1.245 -0.729,1.731c-0.486,0.486 -1.063,0.729 -1.731,0.729l-31.336,-0l-0,0.546c0.121,4.13 1.381,7.303 3.78,9.52c2.399,2.217 5.39,3.325 8.973,3.325c3.34,-0 5.845,-0.471 7.515,-1.412c1.67,-0.941 3.022,-1.989 4.054,-3.143c0.486,-0.486 0.911,-0.82 1.275,-1.002c0.365,-0.182 0.911,-0.273 1.64,-0.273l2.733,-0c0.668,-0 1.275,0.243 1.822,0.729c0.546,0.485 0.759,1.062 0.637,1.73c-0.182,1.093 -0.698,2.293 -1.548,3.599c-0.85,1.305 -2.08,2.52 -3.69,3.643c-1.609,1.124 -3.613,2.065 -6.012,2.824c-2.399,0.759 -5.207,1.139 -8.426,1.139c-3.037,-0 -5.769,-0.531 -8.199,-1.594c-2.429,-1.063 -4.539,-2.52 -6.331,-4.373c-1.791,-1.852 -3.234,-4.038 -4.327,-6.559c-1.093,-2.52 -1.761,-5.268 -2.004,-8.244c-0.303,-2.793 -0.303,-5.587 0,-8.38Zm8.108,0.273l25.597,-0l0,-0.273c0,-3.705 -1.169,-6.665 -3.507,-8.882c-2.338,-2.217 -5.45,-3.325 -9.337,-3.325c-1.761,-0 -3.401,0.288 -4.919,0.865c-1.518,0.577 -2.855,1.397 -4.008,2.46c-1.154,1.063 -2.065,2.353 -2.733,3.871c-0.668,1.519 -1.033,3.189 -1.093,5.011l-0,0.273Z"
                style="fill:#28282d;fill-rule:nonzero;" />
            <path
                d="M176.886,44.957c0.243,2.429 0.774,4.494 1.594,6.194c0.82,1.701 1.822,3.097 3.006,4.191c1.184,1.093 2.505,1.897 3.963,2.414c1.457,0.516 2.945,0.774 4.463,0.774c2.915,-0 5.405,-0.547 7.47,-1.64c2.065,-1.093 3.674,-2.915 4.828,-5.466c0.425,-0.971 0.866,-1.624 1.321,-1.958c0.456,-0.334 1.017,-0.501 1.685,-0.501l2.733,-0c0.668,-0 1.26,0.243 1.777,0.729c0.516,0.485 0.744,1.062 0.683,1.73c-0.061,1.458 -0.532,3.052 -1.412,4.783c-0.881,1.731 -2.186,3.34 -3.917,4.828c-1.731,1.488 -3.857,2.748 -6.377,3.78c-2.52,1.033 -5.45,1.549 -8.791,1.549c-3.34,-0 -6.3,-0.547 -8.881,-1.64c-2.581,-1.093 -4.768,-2.581 -6.559,-4.463c-1.792,-1.883 -3.188,-4.1 -4.191,-6.65c-1.002,-2.551 -1.563,-5.284 -1.685,-8.199c-0.06,-0.972 -0.106,-2.171 -0.136,-3.598c-0.031,-1.427 0.015,-2.657 0.136,-3.689c0.243,-2.915 0.866,-5.648 1.868,-8.199c1.002,-2.551 2.383,-4.767 4.144,-6.65c1.762,-1.883 3.918,-3.37 6.468,-4.464c2.551,-1.093 5.496,-1.639 8.836,-1.639c3.341,-0 6.271,0.516 8.791,1.548c2.52,1.033 4.646,2.293 6.377,3.781c1.731,1.488 3.036,3.097 3.917,4.828c0.88,1.731 1.351,3.325 1.412,4.782c0.061,0.668 -0.167,1.245 -0.683,1.731c-0.517,0.486 -1.109,0.729 -1.777,0.729l-2.733,-0c-0.668,-0 -1.229,-0.167 -1.685,-0.501c-0.455,-0.334 -0.896,-0.987 -1.321,-1.959c-1.154,-2.55 -2.763,-4.372 -4.828,-5.465c-2.065,-1.094 -4.555,-1.64 -7.47,-1.64c-1.518,-0 -3.021,0.258 -4.509,0.774c-1.488,0.516 -2.824,1.321 -4.008,2.414c-1.184,1.093 -2.186,2.49 -3.006,4.191c-0.82,1.7 -1.321,3.765 -1.503,6.194c-0.182,2.247 -0.182,4.373 -0,6.377Z"
                style="fill:#28282d;fill-rule:nonzero;" />
            <path
                d="M231.831,50.232c0,1.154 0.107,2.232 0.319,3.234c0.213,1.002 0.592,1.867 1.139,2.596c0.546,0.729 1.321,1.29 2.323,1.685c1.002,0.395 2.292,0.592 3.871,0.592l4.828,0c0.668,0 1.245,0.243 1.731,0.729c0.486,0.486 0.729,1.063 0.729,1.731l-0,2.915c-0,0.668 -0.243,1.245 -0.729,1.731c-0.486,0.486 -1.063,0.728 -1.731,0.728l-5.739,0c-5.283,0 -9.109,-1.366 -11.478,-4.099c-2.368,-2.733 -3.552,-6.68 -3.552,-11.842l-0,-23.594l-6.741,0c-0.668,0 -1.245,-0.243 -1.731,-0.728c-0.486,-0.486 -0.729,-1.063 -0.729,-1.731l0,-2.915c0,-0.668 0.243,-1.245 0.729,-1.731c0.486,-0.486 1.063,-0.729 1.731,-0.729l6.741,0l-0,-14.848c-0,-0.668 0.243,-1.245 0.728,-1.731c0.486,-0.486 1.063,-0.729 1.731,-0.729l3.371,0c0.668,0 1.245,0.243 1.731,0.729c0.485,0.486 0.728,1.063 0.728,1.731l0,14.848l11.569,0c0.668,0 1.245,0.243 1.731,0.729c0.486,0.486 0.729,1.063 0.729,1.731l-0,2.915c-0,0.668 -0.243,1.245 -0.729,1.731c-0.486,0.485 -1.063,0.728 -1.731,0.728l-11.569,0l0,23.594Z"
                style="fill:#28282d;fill-rule:nonzero;" />
        </g>
    </g>
</svg>