<?xml version="1.0" encoding="UTF-8" standalone="no"?>
<!-- Created with Inkscape (http://www.inkscape.org/) -->

<svg
   xmlns:dc="http://purl.org/dc/elements/1.1/"
   xmlns:cc="http://creativecommons.org/ns#"
   xmlns:rdf="http://www.w3.org/1999/02/22-rdf-syntax-ns#"
   xmlns:svg="http://www.w3.org/2000/svg"
   xmlns="http://www.w3.org/2000/svg"
   xmlns:sodipodi="http://sodipodi.sourceforge.net/DTD/sodipodi-0.dtd"
   xmlns:inkscape="http://www.inkscape.org/namespaces/inkscape"
   width="80.05909mm"
   height="25.098349mm"
   viewBox="0 0 283.67393 88.931157"
   id="svg2"
   version="1.1"
   inkscape:version="0.92.0 r15299"
   sodipodi:docname="VodenaHead.svg">
  <defs
     id="defs4" />
  <sodipodi:namedview
     id="base"
     pagecolor="#ffffff"
     bordercolor="#666666"
     borderopacity="1.0"
     inkscape:pageopacity="0.0"
     inkscape:pageshadow="2"
     inkscape:zoom="1.979899"
     inkscape:cx="142.04283"
     inkscape:cy="71.93908"
     inkscape:document-units="px"
     inkscape:current-layer="text4147-7"
     showgrid="false"
     fit-margin-top="0"
     fit-margin-left="0"
     fit-margin-right="0"
     fit-margin-bottom="0"
     inkscape:window-width="1920"
     inkscape:window-height="1017"
     inkscape:window-x="-8"
     inkscape:window-y="-8"
     inkscape:window-maximized="1"
     showguides="true"
     inkscape:guide-bbox="true" />
  <metadata
     id="metadata7">
    <rdf:RDF>
      <cc:Work
         rdf:about="">
        <dc:format>image/svg+xml</dc:format>
        <dc:type
           rdf:resource="http://purl.org/dc/dcmitype/StillImage" />
        <dc:title />
      </cc:Work>
    </rdf:RDF>
  </metadata>
  <g
     inkscape:label="Layer 1"
     inkscape:groupmode="layer"
     id="layer1"
     transform="translate(-89.044227,-181.76541)">
    <g
       style="font-style:normal;font-variant:normal;font-weight:normal;font-stretch:normal;font-size:70.8235321px;line-height:125%;font-family:'TeX Gyre Adventor';-inkscape-font-specification:'TeX Gyre Adventor';letter-spacing:0px;word-spacing:0px;fill:#d52524;fill-opacity:1;stroke:none;stroke-width:1px;stroke-linecap:butt;stroke-linejoin:miter;stroke-opacity:1"
       id="text4147"
       inkscape:export-xdpi="158.63417"
       inkscape:export-ydpi="158.63417">
      <path
         d="m 154.41656,181.76541 -27.25436,70.42299 -10.67304,0 -27.444948,-70.42299 13.722468,0 18.9637,53.55578 18.9637,-53.55578 13.72248,0 z"
         style="font-style:normal;font-variant:normal;font-weight:bold;font-stretch:normal;font-size:79.67647552px;font-family:'TeX Gyre Adventor';-inkscape-font-specification:'TeX Gyre Adventor Bold'"
         id="path4185"
         inkscape:connector-curvature="0" />
      <path
         d="m 188.2472,232.9244 q 0,8.71129 -5.59506,14.448 -5.59506,5.73671 -14.09389,5.73671 -8.99458,0 -14.87294,-5.80753 -5.87835,-5.80753 -5.87835,-14.7313 0,-8.49882 5.80753,-14.23553 5.87835,-5.80753 14.51882,-5.80753 8.7113,0 14.37718,5.80753 5.73671,5.73671 5.73671,14.58965 z m -5.31177,0.0708 q 0,-6.72823 -4.24941,-11.19012 -4.17859,-4.46188 -10.55271,-4.46188 -6.44494,0 -10.76517,4.39106 -4.24942,4.39106 -4.24942,10.97765 0,6.79906 4.32024,11.19012 4.32023,4.39106 10.97765,4.39106 6.30329,0 10.41106,-4.32024 4.10776,-4.32023 4.10776,-10.97765 z"
         style="font-style:normal;font-variant:normal;font-weight:normal;font-stretch:normal;font-family:'TeX Gyre Adventor';-inkscape-font-specification:'TeX Gyre Adventor';fill:#1a1a1a"
         id="path4187"
         inkscape:connector-curvature="0" />
      <path
         d="m 235.22423,252.1884 -5.24094,0 0,-7.01153 q -2.90377,4.17859 -6.44495,6.09082 -3.47035,1.84142 -8.28635,1.84142 -8.99459,0 -15.08541,-5.80753 -6.02,-5.80753 -6.02,-14.448 0,-8.64047 5.87835,-14.448 5.94918,-5.87836 14.7313,-5.87836 9.3487,0 15.22706,7.08236 l 0,-19.75977 5.24094,0 0,52.33859 z m -9.49036,-8.49882 q 4.46189,-4.60353 4.46189,-10.97765 0,-6.37412 -4.60353,-10.836 -4.53271,-4.53271 -10.97765,-4.53271 -6.3033,0 -10.76518,4.46188 -4.39106,4.46189 -4.39106,10.83601 0,6.65741 4.46189,11.19011 4.5327,4.46189 11.19011,4.46189 6.23247,0 10.62353,-4.60353 z"
         style="font-style:normal;font-variant:normal;font-weight:normal;font-stretch:normal;font-family:'TeX Gyre Adventor';-inkscape-font-specification:'TeX Gyre Adventor';fill:#1a1a1a"
         id="path4189"
         inkscape:connector-curvature="0" />
      <path
         d="m 282.99802,234.55334 -35.05764,0 q 0.28329,5.73671 4.67435,9.77365 4.46188,3.96612 10.41106,3.96612 4.39106,0 8.1447,-2.408 3.75365,-2.47883 5.38259,-6.44495 l 5.45341,0 q -1.91223,5.73671 -7.224,9.70283 -5.24094,3.96612 -11.61505,3.96612 -8.56965,0 -14.51883,-5.87836 -5.94918,-5.94917 -5.94918,-14.58964 0,-8.428 5.80753,-14.23553 5.87836,-5.87836 14.30636,-5.87836 8.78212,0 14.448,6.02 5.7367,5.94918 5.7367,16.00612 z m -5.24094,-4.74518 q -1.34564,-5.80753 -5.38259,-9.13623 -3.96611,-3.32871 -9.632,-3.32871 -5.52423,0 -9.56117,3.47036 -4.03694,3.39953 -5.0993,8.99458 l 29.67506,0 z m -4.24941,-27.76282 -13.66894,8.07388 -2.408,-3.96612 13.66894,-8.21553 2.408,4.10777 z"
         style="font-style:normal;font-variant:normal;font-weight:normal;font-stretch:normal;font-family:'TeX Gyre Adventor';-inkscape-font-specification:'TeX Gyre Adventor';fill:#1a1a1a"
         id="path4191"
         inkscape:connector-curvature="0" />
      <path
         d="m 324.38994,252.1884 -5.24094,0 0,-20.32635 q 0,-14.51883 -11.96918,-14.51883 -5.52423,0 -8.71129,3.32871 -3.11624,3.3287 -3.11624,10.19859 l 0,21.31788 -5.24094,0 0,-38.74047 5.24094,0 0,5.02847 q 4.88683,-5.94918 12.46494,-5.94918 7.64894,0 12.11083,4.816 4.46188,4.74518 4.46188,14.51883 l 0,20.32635 z"
         style="font-style:normal;font-variant:normal;font-weight:normal;font-stretch:normal;font-family:'TeX Gyre Adventor';-inkscape-font-specification:'TeX Gyre Adventor';fill:#1a1a1a"
         id="path4193"
         inkscape:connector-curvature="0" />
      <path
         d="m 372.71815,252.1884 -5.24094,0 0,-6.79906 q -3.11623,4.17859 -6.58659,5.94918 -3.39953,1.77059 -8.35717,1.77059 -8.92377,0 -14.87294,-5.73671 -5.87836,-5.80753 -5.87836,-14.448 0,-8.71129 5.80753,-14.51882 5.87835,-5.87836 14.58965,-5.87836 9.77365,0 15.29788,7.79059 l 0,-6.86988 5.24094,0 0,38.74047 z m -5.24094,-19.54729 q 0,-6.44495 -4.39106,-10.83601 -4.39106,-4.46188 -10.76517,-4.46188 -6.3033,0 -10.76518,4.46188 -4.46188,4.46189 -4.46188,10.76518 0,6.65741 4.46188,11.19012 4.46188,4.53271 11.04847,4.53271 6.23247,0 10.55271,-4.53271 4.32023,-4.53271 4.32023,-11.11929 z"
         style="font-style:normal;font-variant:normal;font-weight:normal;font-stretch:normal;font-family:'TeX Gyre Adventor';-inkscape-font-specification:'TeX Gyre Adventor';fill:#1a1a1a"
         id="path4195"
         inkscape:connector-curvature="0" />
    </g>
    <g
       style="font-style:normal;font-variant:normal;font-weight:normal;font-stretch:normal;font-size:30.98529625px;line-height:125%;font-family:'TeX Gyre Adventor';-inkscape-font-specification:'TeX Gyre Adventor';letter-spacing:0px;word-spacing:0px;fill:#d52524;fill-opacity:1;stroke:none;stroke-width:1px;stroke-linecap:butt;stroke-linejoin:miter;stroke-opacity:1"
       id="text4147-7"
       transform="matrix(0.82059182,0,0,0.82059182,-192.04413,65.176179)">
      <g
         style="font-style:normal;font-weight:normal;font-size:21.32607079px;line-height:125%;font-family:sans-serif;letter-spacing:0px;word-spacing:0px;fill:#d52524;fill-opacity:1;stroke:none;stroke-width:1px;stroke-linecap:butt;stroke-linejoin:miter;stroke-opacity:1"
         id="text4156"
         transform="matrix(0.96448287,0,0,0.96448287,24.443349,8.2851217)">
        <path
           d="m 521.23872,250.15681 h -1.69085 l -10.05372,-14.85208 v 14.85208 h -1.69086 v -16.88567 h 2.28494 l 9.45964,14.00665 v -14.00665 h 1.69085 z"
           style="font-style:normal;font-variant:normal;font-weight:normal;font-stretch:normal;font-size:22.84936333px;font-family:'TeX Gyre Adventor';-inkscape-font-specification:'TeX Gyre Adventor';letter-spacing:0px;fill:#d52524;fill-opacity:1"
           id="path4176"
           inkscape:connector-curvature="0" />
        <path
           d="m 537.37037,250.15681 h -1.69085 v -2.19353 q -1.00538,1.34811 -2.12499,1.91934 -1.09677,0.57124 -2.69623,0.57124 -2.87902,0 -4.79837,-1.8508 -1.89649,-1.87365 -1.89649,-4.66127 0,-2.81047 1.87365,-4.68412 1.89649,-1.8965 4.70696,-1.8965 3.15322,0 4.93547,2.51343 v -2.21639 h 1.69085 z m -1.69085,-6.30642 q 0,-2.07929 -1.41666,-3.49595 -1.41666,-1.43951 -3.47311,-1.43951 -2.03359,0 -3.4731,1.43951 -1.43951,1.43951 -1.43951,3.4731 0,2.14784 1.43951,3.6102 1.43951,1.46236 3.5645,1.46236 2.01074,0 3.40456,-1.46236 1.39381,-1.46236 1.39381,-3.58735 z"
           style="font-style:normal;font-variant:normal;font-weight:normal;font-stretch:normal;font-size:22.84936333px;font-family:'TeX Gyre Adventor';-inkscape-font-specification:'TeX Gyre Adventor';letter-spacing:0px;fill:#d52524;fill-opacity:1"
           id="path4178"
           inkscape:connector-curvature="0" />
        <path
           d="m 546.25056,239.18912 h -2.81047 v 10.96769 h -1.69086 v -10.96769 h -2.69622 v -1.53091 h 2.69622 v -4.38707 h 1.69086 v 4.38707 h 2.81047 z"
           style="font-style:normal;font-variant:normal;font-weight:normal;font-stretch:normal;font-size:22.84936333px;font-family:'TeX Gyre Adventor';-inkscape-font-specification:'TeX Gyre Adventor';letter-spacing:0px;fill:#d52524;fill-opacity:1"
           id="path4180"
           inkscape:connector-curvature="0" />
        <path
           d="m 558.95231,250.15681 h -1.69085 v -1.94219 q -1.21102,2.23924 -4.02149,2.23924 -5.30106,0 -5.30106,-6.05508 v -6.74057 h 1.69086 v 6.74057 q 0,4.50132 3.74729,4.50132 1.8051,0 2.83332,-1.18817 1.05108,-1.18816 1.05108,-3.63305 v -6.42067 h 1.69085 z"
           style="font-style:normal;font-variant:normal;font-weight:normal;font-stretch:normal;font-size:22.84936333px;font-family:'TeX Gyre Adventor';-inkscape-font-specification:'TeX Gyre Adventor';letter-spacing:0px;fill:#d52524;fill-opacity:1"
           id="path4182"
           inkscape:connector-curvature="0" />
        <path
           d="m 567.05062,239.02917 q -3.54165,0.34275 -3.54165,3.8387 v 7.28894 h -1.69085 v -12.4986 h 1.69085 v 1.78225 q 0.50269,-1.02822 1.34811,-1.50805 0.84543,-0.50269 2.19354,-0.57124 z"
           style="font-style:normal;font-variant:normal;font-weight:normal;font-stretch:normal;font-size:22.84936333px;font-family:'TeX Gyre Adventor';-inkscape-font-specification:'TeX Gyre Adventor';letter-spacing:0px;fill:#d52524;fill-opacity:1"
           id="path4184"
           inkscape:connector-curvature="0" />
        <path
           d="m 580.54281,244.46732 h -11.31044 q 0.0914,1.8508 1.50806,3.15322 1.43951,1.27956 3.35886,1.27956 1.41666,0 2.62768,-0.77688 1.21101,-0.79973 1.73655,-2.07929 h 1.7594 q -0.61693,1.8508 -2.33064,3.13036 -1.69085,1.27957 -3.74729,1.27957 -2.76478,0 -4.68412,-1.8965 -1.91935,-1.91935 -1.91935,-4.70697 0,-2.71907 1.87365,-4.59272 1.8965,-1.8965 4.61557,-1.8965 2.83332,0 4.66127,1.9422 1.8508,1.91934 1.8508,5.16395 z m -1.69085,-1.5309 q -0.43414,-1.87365 -1.73656,-2.94757 -1.27956,-1.07392 -3.10751,-1.07392 -1.78225,0 -3.08466,1.11962 -1.30242,1.09677 -1.64516,2.90187 z"
           style="font-style:normal;font-variant:normal;font-weight:normal;font-stretch:normal;font-size:22.84936333px;font-family:'TeX Gyre Adventor';-inkscape-font-specification:'TeX Gyre Adventor';letter-spacing:0px;fill:#d52524;fill-opacity:1"
           id="path4186"
           inkscape:connector-curvature="0" />
        <path
           d="m 607.72856,250.15681 h -1.69085 v -7.24324 q 0,-4.02149 -3.31316,-4.02149 -1.57661,0 -2.51343,1.00537 -0.91398,0.98252 -0.91398,3.01612 v 7.24324 h -1.69085 v -7.28894 q 0,-1.9879 -0.93682,-2.97042 -0.91398,-0.98252 -2.44488,-0.98252 -1.57661,0 -2.46774,1.05107 -0.89112,1.02822 -0.89112,2.90187 v 7.28894 h -1.69085 v -12.4986 h 1.69085 v 1.43951 q 0.70833,-0.93682 1.50806,-1.32526 0.82257,-0.41129 2.01074,-0.41129 1.39381,0 2.37634,0.57124 0.98252,0.57123 1.7137,1.82794 1.5309,-2.42203 4.34138,-2.42203 2.21638,0 3.5645,1.39381 1.34811,1.37096 1.34811,3.99864 z"
           style="font-style:normal;font-variant:normal;font-weight:normal;font-stretch:normal;font-size:22.84936333px;font-family:'TeX Gyre Adventor';-inkscape-font-specification:'TeX Gyre Adventor';letter-spacing:0px;fill:#d52524;fill-opacity:1"
           id="path4188"
           inkscape:connector-curvature="0" />
        <path
           d="m 623.1633,243.94179 q 0,2.81047 -1.8051,4.66127 -1.8051,1.8508 -4.54702,1.8508 -2.90187,0 -4.79837,-1.87365 -1.8965,-1.87365 -1.8965,-4.75267 0,-2.74192 1.87365,-4.59272 1.8965,-1.87365 4.68412,-1.87365 2.81047,0 4.63842,1.87365 1.8508,1.8508 1.8508,4.70697 z m -1.7137,0.0229 q 0,-2.17069 -1.37097,-3.6102 -1.34811,-1.43951 -3.40455,-1.43951 -2.07929,0 -3.4731,1.41666 -1.37097,1.41666 -1.37097,3.54165 0,2.19354 1.39382,3.6102 1.39381,1.41666 3.54165,1.41666 2.03359,0 3.35885,-1.39381 1.32527,-1.39381 1.32527,-3.54165 z"
           style="font-style:normal;font-variant:normal;font-weight:normal;font-stretch:normal;font-size:22.84936333px;font-family:'TeX Gyre Adventor';-inkscape-font-specification:'TeX Gyre Adventor';letter-spacing:0px;fill:#d52524;fill-opacity:1"
           id="path4190"
           inkscape:connector-curvature="0" />
        <path
           d="m 638.31921,250.15681 h -1.69085 v -2.26208 q -0.93682,1.34811 -2.07929,1.96504 -1.11962,0.59409 -2.67338,0.59409 -2.90186,0 -4.86691,-1.87365 -1.9422,-1.87365 -1.9422,-4.66127 0,-2.78762 1.8965,-4.66127 1.91935,-1.8965 4.75267,-1.8965 3.01611,0 4.91261,2.28494 v -6.37497 h 1.69085 z m -3.06181,-2.74192 q 1.43951,-1.48521 1.43951,-3.54165 0,-2.05644 -1.48521,-3.49595 -1.46236,-1.46236 -3.54165,-1.46236 -2.03359,0 -3.4731,1.43951 -1.41666,1.43951 -1.41666,3.49595 0,2.14784 1.43951,3.6102 1.46236,1.43951 3.6102,1.43951 2.01074,0 3.4274,-1.48521 z"
           style="font-style:normal;font-variant:normal;font-weight:normal;font-stretch:normal;font-size:22.84936333px;font-family:'TeX Gyre Adventor';-inkscape-font-specification:'TeX Gyre Adventor';letter-spacing:0px;fill:#d52524;fill-opacity:1"
           id="path4192"
           inkscape:connector-curvature="0" />
        <path
           d="m 653.73219,244.46732 h -11.31044 q 0.0914,1.8508 1.50806,3.15322 1.43951,1.27956 3.35886,1.27956 1.41666,0 2.62767,-0.77688 1.21102,-0.79973 1.73655,-2.07929 h 1.7594 q -0.61693,1.8508 -2.33063,3.13036 -1.69085,1.27957 -3.7473,1.27957 -2.76477,0 -4.68412,-1.8965 -1.91934,-1.91935 -1.91934,-4.70697 0,-2.71907 1.87365,-4.59272 1.89649,-1.8965 4.61557,-1.8965 2.83332,0 4.66127,1.9422 1.8508,1.91934 1.8508,5.16395 z m -1.69086,-1.5309 q -0.43413,-1.87365 -1.73655,-2.94757 -1.27956,-1.07392 -3.10751,-1.07392 -1.78225,0 -3.08467,1.11962 -1.30241,1.09677 -1.64515,2.90187 z"
           style="font-style:normal;font-variant:normal;font-weight:normal;font-stretch:normal;font-size:22.84936333px;font-family:'TeX Gyre Adventor';-inkscape-font-specification:'TeX Gyre Adventor';letter-spacing:0px;fill:#d52524;fill-opacity:1"
           id="path4194"
           inkscape:connector-curvature="0" />
        <path
           d="m 657.71796,250.15681 h -1.69085 v -16.88567 h 1.69085 z"
           style="font-style:normal;font-variant:normal;font-weight:normal;font-stretch:normal;font-size:22.84936333px;font-family:'TeX Gyre Adventor';-inkscape-font-specification:'TeX Gyre Adventor';letter-spacing:0px;fill:#d52524;fill-opacity:1"
           id="path4196"
           inkscape:connector-curvature="0" />
        <path
           d="m 673.14521,244.46732 h -11.31043 q 0.0914,1.8508 1.50805,3.15322 1.43951,1.27956 3.35886,1.27956 1.41666,0 2.62768,-0.77688 1.21101,-0.79973 1.73655,-2.07929 h 1.7594 q -0.61693,1.8508 -2.33064,3.13036 -1.69085,1.27957 -3.74729,1.27957 -2.76477,0 -4.68412,-1.8965 -1.91935,-1.91935 -1.91935,-4.70697 0,-2.71907 1.87365,-4.59272 1.8965,-1.8965 4.61557,-1.8965 2.83332,0 4.66127,1.9422 1.8508,1.91934 1.8508,5.16395 z m -1.69085,-1.5309 q -0.43414,-1.87365 -1.73655,-2.94757 -1.27957,-1.07392 -3.10752,-1.07392 -1.78225,0 -3.08466,1.11962 -1.30241,1.09677 -1.64516,2.90187 z"
           style="font-style:normal;font-variant:normal;font-weight:normal;font-stretch:normal;font-size:22.84936333px;font-family:'TeX Gyre Adventor';-inkscape-font-specification:'TeX Gyre Adventor';letter-spacing:0px;fill:#d52524;fill-opacity:1"
           id="path4198"
           inkscape:connector-curvature="0" />
        <path
           d="m 688.21294,250.15681 h -1.69085 v -2.26208 q -0.93682,1.34811 -2.07929,1.96504 -1.11962,0.59409 -2.67338,0.59409 -2.90186,0 -4.86691,-1.87365 -1.9422,-1.87365 -1.9422,-4.66127 0,-2.78762 1.8965,-4.66127 1.91935,-1.8965 4.75267,-1.8965 3.01611,0 4.91261,2.28494 v -6.37497 h 1.69085 z m -3.06181,-2.74192 q 1.43951,-1.48521 1.43951,-3.54165 0,-2.05644 -1.48521,-3.49595 -1.46236,-1.46236 -3.54165,-1.46236 -2.03359,0 -3.4731,1.43951 -1.41666,1.43951 -1.41666,3.49595 0,2.14784 1.43951,3.6102 1.46236,1.43951 3.6102,1.43951 2.01074,0 3.4274,-1.48521 z"
           style="font-style:normal;font-variant:normal;font-weight:normal;font-stretch:normal;font-size:22.84936333px;font-family:'TeX Gyre Adventor';-inkscape-font-specification:'TeX Gyre Adventor';letter-spacing:0px;fill:#d52524;fill-opacity:1"
           id="path4200"
           inkscape:connector-curvature="0" />
      </g>
    </g>
  </g>
</svg>
