<svg xmlns:xlink="http://www.w3.org/1999/xlink" width="109" height="30" fill="none" xmlns="http://www.w3.org/2000/svg"><path d="M64.506 9.579c-.383 0-.715.137-.985.407a1.35 1.35 0 00-.408.986c0 .383.137.714.408.985.27.27.602.408.985.408.382 0 .713-.138.985-.408.27-.27.408-.602.408-.985s-.138-.714-.408-.986a1.348 1.348 0 00-.985-.407zM105.332 9.354l-1.617 1.618 1.617 1.618 1.618-1.618-1.618-1.618zM88.5 22.293h-2.487v2.487h2.486v-2.487z" fill="#00ABA0"></path><path d="M65.97 16.804c0-1.092-.888-1.98-1.98-1.98h-.938v1.273h.938c.39 0 .708.317.708.707v6.702h-1.645v1.272h4.562v-1.272H65.97v-6.702zM106.67 23.506v-6.702c0-1.092-.888-1.98-1.98-1.98h-.948v1.273h.948c.39 0 .708.317.708.707v6.702h-1.658v1.272h4.592v-1.272h-1.662zM55.198 16.1h1.645v6.7c0 1.092.888 1.98 1.98 1.98h.938v-1.272h-.938a.708.708 0 01-.708-.708v-6.7h1.645v-1.273h-4.562V16.1zM40.817 20.191c0 .888-.347 1.722-.977 2.347a3.288 3.288 0 01-2.36.96h-.852c-1.81-.013-3.282-1.506-3.282-3.326v-8.449h-1.272v8.45c0 2.515 2.038 4.579 4.55 4.598h.885a4.548 4.548 0 003.228-1.33 4.55 4.55 0 001.353-3.25v-8.467h-1.272v8.467h-.001zM80.297 14.847h-.891a3.225 3.225 0 00-2.593 1.307 3.228 3.228 0 00-2.593-1.307h-.89a3.232 3.232 0 00-3.23 3.229l-.002 6.704h1.272l.003-6.704c0-1.079.878-1.956 1.956-1.956h.891c1.08 0 1.957.878 1.957 1.956l-.003 6.704h1.273l.002-6.703c0-1.079.878-1.956 1.957-1.956h.89c1.08 0 1.957.878 1.957 1.956l-.002 6.704h1.272l.003-6.703a3.233 3.233 0 00-3.23-3.23zM49.275 14.824h-.745c-1.05 0-2.039.407-2.785 1.148a3.925 3.925 0 00-1.168 2.806v10.367h1.272v-5.43a3.92 3.92 0 002.656 1.065h.716a3.923 3.923 0 002.814-1.148 3.926 3.926 0 001.168-2.805V18.82c.001-2.188-1.76-3.98-3.928-3.996zm2.657 6.003c0 .72-.282 1.396-.793 1.903a2.66 2.66 0 01-1.913.778h-.716c-1.467-.011-2.66-1.232-2.66-2.723v-2.007c0-.72.28-1.396.791-1.903a2.662 2.662 0 011.914-.778h.716c1.467.011 2.66 1.233 2.66 2.723v2.007zM99.32 22.8v-4.039c0-2.186-1.76-3.979-3.929-3.995h-.745c-1.05 0-2.039.407-2.785 1.148a3.926 3.926 0 00-1.168 2.806v2.045c0 2.187 1.76 3.979 3.928 3.995h.746a3.925 3.925 0 002.833-1.197 1.983 1.983 0 001.827 1.217h1.226v-1.272h-1.226a.709.709 0 01-.708-.708zm-1.273-1.994c0 .72-.281 1.396-.792 1.903-.511.507-1.19.786-1.914.779h-.716c-1.467-.011-2.66-1.233-2.66-2.723V18.72c0-.72.281-1.396.792-1.903a2.662 2.662 0 011.914-.778h.715c1.467.01 2.661 1.232 2.661 2.722v2.046zM23.958 4.226l-1.552-.893a2.082 2.082 0 00-2.101 0 2.081 2.081 0 00-1.05 1.821v12.77a7.255 7.255 0 01-2.16 5.184 7.253 7.253 0 01-5.357 2.116 7.254 7.254 0 01-1.09-3.843V8.345a4.767 4.767 0 00-2.381-4.12l-1.552-.894-.54.937 1.552.894a3.683 3.683 0 011.839 3.183v13.036c0 1.298.293 2.55.847 3.682-2.868-.622-5.147-2.953-5.663-5.982l-1.066.181a8.552 8.552 0 002.8 4.992 8.325 8.325 0 004.652 2.014c.27.376.573.732.909 1.065a8.328 8.328 0 005.907 2.434h.064a8.301 8.301 0 003.929-1.024l-.522-.947a7.215 7.215 0 01-3.415.89 7.261 7.261 0 01-5.466-2.397 8.319 8.319 0 005.316-2.414 8.329 8.329 0 002.478-5.952V5.154c0-.369.191-.7.51-.884a1.01 1.01 0 011.021 0l1.552.894c.14.08.277.172.406.27l.659-.857a4.91 4.91 0 00-.526-.35z" fill="#0A0011"></path><path d="M4.645 5.48H3.563v9.853h1.082V5.48zM25.257 9.126v12.157c0 1.298-.34 2.58-.983 3.703l.938.537a8.543 8.543 0 001.127-4.24V9.126h-1.082z" fill="#0A0011"></path><path d="M4.104 16.242a1.244 1.244 0 110 2.488 1.244 1.244 0 010-2.488zm0-1.272a2.519 2.519 0 00-2.516 2.516 2.519 2.519 0 002.516 2.516 2.519 2.519 0 002.516-2.516 2.52 2.52 0 00-2.516-2.516zM25.797 5.188a1.86 1.86 0 110 3.72 1.86 1.86 0 010-3.72zm0-1.272a3.136 3.136 0 00-3.131 3.132 3.135 3.135 0 003.131 3.132 3.136 3.136 0 003.133-3.132 3.135 3.135 0 00-3.133-3.132zM3.558 1.8l1.758 1.758-1.758 1.759-1.759-1.759L3.558 1.8zm0-1.8l-.9.9L.9 2.658l-.9.9.9.9 1.758 1.758.9.9.9-.9 1.758-1.759.9-.9-.9-.899L4.457.9l-.9-.9zM24.404 25.854v2.016h-2.017v-2.017h2.017zm1.273-1.273h-4.562V29.143H25.677V24.58z" fill="#00ABA0"></path></svg>