<?xml version="1.0" encoding="UTF-8"?>
<svg width="134px" height="134px" viewBox="0 0 134 134" version="1.1" xmlns="http://www.w3.org/2000/svg" xmlns:xlink="http://www.w3.org/1999/xlink">
    <!-- Generator: Sketch 57 (83077) - https://sketch.com -->
    <title>Flasks</title>
    <desc>Created with Sketch.</desc>
    <g id="Page-1" stroke="none" stroke-width="1" fill="none" fill-rule="evenodd">
        <g id="Icons" transform="translate(-547.000000, -144.000000)" fill-rule="nonzero">
            <g id="Flasks" transform="translate(547.000000, 144.000000)">
                <path d="M106.873319,53.735598 L106.873319,21.1954706 C110.053503,20.8421798 112.535032,18.1392781 112.535032,14.866242 C112.535032,11.3539986 109.677849,8.49681529 106.165605,8.49681529 L77.8570418,8.49681529 C74.3447983,8.49681529 71.487615,11.3539986 71.487615,14.866242 C71.487615,18.138995 73.9691437,20.8421798 77.1493277,21.1954706 L77.1493277,53.7361642 C70.7303609,56.2307148 65.0185421,60.3221515 60.558811,65.6351026 C59.8046709,66.5333333 59.9218684,67.8723284 60.819816,68.6261854 C61.2178344,68.9602265 61.7021939,69.1232838 62.1837226,69.1232838 C62.7895258,69.1232838 63.3910828,68.8653928 63.8108988,68.3651805 C68.1055909,63.2489738 73.6922859,59.3964614 79.9671621,57.2240623 C80.8223638,56.9279547 81.3956122,56.1225761 81.3956122,55.2178344 L81.3956122,21.2356688 L93.4267516,21.2356688 C94.5992923,21.2356688 95.5498938,20.2850672 95.5498938,19.1125265 C95.5498938,17.9399858 94.5992923,16.9893843 93.4267516,16.9893843 L77.8570418,16.9893843 C76.6861996,16.9893843 75.7338995,16.0370842 75.7338995,14.866242 C75.7338995,13.6953999 76.6861996,12.7430998 77.8570418,12.7430998 L106.165605,12.7430998 C107.336447,12.7430998 108.288747,13.6953999 108.288747,14.866242 C108.288747,16.0370842 107.336447,16.9893843 106.165605,16.9893843 L101.919321,16.9893843 C100.74678,16.9893843 99.7961783,17.9399858 99.7961783,19.1125265 C99.7961783,20.2850672 100.74678,21.2356688 101.919321,21.2356688 L102.627035,21.2356688 L102.627035,55.2175513 C102.627035,56.122293 103.200566,56.9279547 104.055485,57.2237792 C118.863411,62.35046 128.812456,76.3286624 128.812456,92.0067941 C128.812456,112.298938 112.303468,128.807926 92.0113234,128.807926 C87.2274593,128.807926 82.5707006,127.901486 78.1707006,126.114084 C77.0847841,125.67247 75.8460014,126.195612 75.4046709,127.281812 C74.9633404,128.368011 75.4864827,129.606511 76.5726822,130.047841 C81.4828025,132.042463 86.6768577,133.053928 92.0113234,133.053928 C114.644869,133.053928 133.05874,114.640057 133.05874,92.006511 C133.05874,75.0295824 122.59816,59.8392074 106.873319,53.735598 L106.873319,53.735598 Z" id="Path" fill="#50E38C"></path>
                <circle id="Oval" fill="#9013FE" cx="107.833829" cy="99.4734607" r="2.12314225"></circle>
                <circle id="Oval" fill="#9013FE" cx="99.3412597" cy="107.96603" r="2.12314225"></circle>
                <path d="M80.019816,117.656051 C78.958528,117.159236 77.6942675,117.616419 77.196603,118.678273 C76.6992215,119.740127 77.156971,121.004105 78.2188252,121.501486 C82.5545648,123.532343 87.1949045,124.562208 92.0113234,124.562208 C109.962067,124.562208 124.566171,109.958103 124.566171,92.0073602 C124.566171,86.2853503 123.059306,80.6561925 120.208351,75.7282378 C119.775796,74.9806086 118.934183,74.568719 118.078132,74.6887473 L117.305308,74.7963199 C117.208493,74.8096249 117.112243,74.8300071 117.018259,74.8566171 C113.808634,75.7675867 112.077565,77.1578202 110.686766,78.2748762 C109.145931,79.5125265 108.127672,80.3300778 105.190375,80.3300778 C102.681953,80.3300778 101.550177,79.3576787 99.983581,78.0118896 C98.2496815,76.522293 96.0917197,74.6681422 92.009908,74.6681422 C87.9283793,74.6681422 85.7707006,76.522293 84.0368011,78.0121727 C82.4704883,79.3579618 81.338995,80.3300778 78.8311394,80.3300778 C75.894126,80.3300778 74.8764331,79.5125265 73.335598,78.2748762 C71.9447983,77.1578202 70.2140127,75.7675867 67.004954,74.8566171 C66.9106865,74.829724 66.8147205,74.8096249 66.7176221,74.7963199 L65.9447983,74.6887473 C65.0904459,74.5690021 64.2508139,74.978627 63.8174098,75.7234253 C63.7990092,75.7548478 63.7811748,75.7868365 63.7616419,75.8230715 C63.1773531,76.839632 63.5278132,78.1375796 64.5443737,78.7218684 C64.9859873,78.9755131 65.4802548,79.0530786 65.9464968,78.9760793 L65.9818825,78.9811748 C68.2720453,79.6543524 69.4409059,80.5930644 70.6765747,81.5858457 C72.5070064,83.0561925 74.4,84.5766454 78.8311394,84.5766454 C82.9126681,84.5766454 85.0703468,82.7227176 86.8042463,81.2328379 C88.3705591,79.8870488 89.5020524,78.9149328 92.009908,78.9149328 C94.5183298,78.9149328 95.6501062,79.8873319 97.2167021,81.233121 C98.9506016,82.7227176 101.108563,84.5766454 105.190375,84.5766454 C109.621798,84.5766454 111.514791,83.0561925 113.345789,81.5861288 C114.436518,80.7099788 115.474593,79.8762916 117.277849,79.2294409 C119.272187,83.170276 120.32017,87.5561217 120.32017,92.0076433 C120.32017,107.616985 107.620948,120.316207 92.0116065,120.316207 C87.8222222,120.31564 83.7876858,119.420807 80.019816,117.656051 L80.019816,117.656051 Z" id="Path" fill="#9013FE"></path>
                <path d="M51.2469922,54.8608634 L51.2469922,12.7029016 C54.4271762,12.3496108 56.9087049,9.64670913 56.9087049,6.37367304 C56.9087049,2.86142958 54.0515216,0.0042462845 50.5392781,0.0042462845 L22.2307148,0.0042462845 C18.7184713,0.0042462845 15.861288,2.86142958 15.861288,6.37367304 C15.861288,9.64642604 18.3428167,12.3496108 21.5230007,12.7029016 L21.5230007,46.7252654 C21.5230007,47.8978061 22.4736023,48.8484076 23.646143,48.8484076 C24.8186837,48.8484076 25.7692852,47.8978061 25.7692852,46.7252654 L25.7692852,12.7430998 L37.8004246,12.7430998 C38.9729653,12.7430998 39.9235669,11.7924982 39.9235669,10.6199575 C39.9235669,9.44741684 38.9729653,8.49681529 37.8004246,8.49681529 L22.2307148,8.49681529 C21.0598726,8.49681529 20.1075725,7.54451522 20.1075725,6.37367304 C20.1075725,5.20283086 21.0598726,4.25053079 22.2307148,4.25053079 L50.5392781,4.25053079 C51.7101203,4.25053079 52.6624204,5.20283086 52.6624204,6.37367304 C52.6624204,7.54451522 51.7101203,8.49681529 50.5392781,8.49681529 L46.2929936,8.49681529 C45.1204529,8.49681529 44.1698514,9.44741684 44.1698514,10.6199575 C44.1698514,11.7924982 45.1204529,12.7430998 46.2929936,12.7430998 L47.0007077,12.7430998 L47.0007077,55.2178344 C47.0007077,55.4539278 47.0400566,55.6886058 47.117339,55.9116773 L67.7511677,115.573107 C68.9973107,119.176221 68.7162067,122.518613 66.9599434,124.984572 C65.203397,127.450248 62.1367304,128.808493 58.3244161,128.808493 L14.446143,128.808493 C10.6338287,128.808493 7.56687898,127.450531 5.81033263,124.984572 C4.05406936,122.518613 3.77296532,119.176221 5.01910828,115.57339 L25.652937,55.9122435 C26.036235,54.8039632 25.4485492,53.5949045 24.340552,53.2116065 C23.2325548,52.8285916 22.023213,53.4159943 21.6399151,54.5239915 L1.00580326,114.185138 C-0.701769285,119.121868 -0.22363765,123.83213 2.35159236,127.4477 C4.92682236,131.06327 9.22208068,133.054494 14.4458599,133.054494 L58.3241331,133.054494 C63.5479122,133.054494 67.8431706,131.06327 70.4184006,127.4477 C72.9936306,123.83213 73.4717622,119.121868 71.7641897,114.185138 L51.2469922,54.8608634 Z" id="Path" fill="#9013FE"></path>
                <path d="M18.3020524,98.7380042 C17.7613588,98.3187544 17.051097,98.185138 16.3957537,98.3804671 C15.7398443,98.5755131 15.2178344,99.0748762 14.9941967,99.7217268 L9.03184713,116.961359 C8.24713376,119.230573 8.33121019,121.205096 9.26878981,122.521161 C10.2063694,123.837226 12.0447275,124.562208 14.4458599,124.562208 L58.3241331,124.562208 C60.7249823,124.562208 62.5636235,123.837226 63.50092,122.521161 C64.4387827,121.205096 64.5228592,119.23029 63.7378627,116.961359 L57.77523,99.7211607 C57.5515924,99.07431 57.0298655,98.57523 56.3739561,98.380184 C55.7180467,98.1848549 55.0080679,98.3181883 54.4676575,98.7377212 C53.3095541,99.6359519 52.2131635,100.323284 49.563765,100.323284 C47.0556263,100.323284 45.9235669,99.3508846 44.356971,98.0050955 C42.6230715,96.5154989 40.4651097,94.6615711 36.3832979,94.6615711 C32.3017693,94.6615711 30.1440906,96.5154989 28.4101911,98.0053786 C26.8438783,99.3511677 25.712385,100.323284 23.2042463,100.323284 C20.5556971,100.322718 19.4595895,99.6359519 18.3020524,98.7380042 L18.3020524,98.7380042 Z M31.1776362,101.225478 C32.743949,99.8796886 33.8754423,98.9075725 36.3832979,98.9075725 C38.8917197,98.9075725 40.0234961,99.8799717 41.590092,101.225761 C43.3239915,102.715357 45.4819533,104.569285 49.563765,104.569285 C51.7831564,104.569285 53.3808917,104.171833 54.628167,103.612739 L59.7248408,118.349328 C60.0260439,119.220382 60.0427459,119.7908 60.0130219,120.036801 C59.7902335,120.145223 59.2458599,120.315924 58.3241331,120.315924 L14.4458599,120.315924 C13.5241331,120.315924 12.9797594,120.145223 12.756971,120.036801 C12.727247,119.7908 12.743949,119.220382 13.0451522,118.349328 L18.1415428,103.613305 C19.3882519,104.172399 20.9857042,104.569568 23.2045294,104.569568 C27.2863411,104.569002 29.4440198,102.715074 31.1776362,101.225478 Z" id="Shape" fill="#50E38C"></path>
            </g>
        </g>
    </g>
</svg>