<?xml version="1.0" encoding="UTF-8"?>
<svg width="97px" height="134px" viewBox="0 0 97 134" version="1.1" xmlns="http://www.w3.org/2000/svg" xmlns:xlink="http://www.w3.org/1999/xlink">
    <!-- Generator: Sketch 57 (83077) - https://sketch.com -->
    <title>DNA</title>
    <desc>Created with Sketch.</desc>
    <g id="Page-1" stroke="none" stroke-width="1" fill="none" fill-rule="evenodd">
        <g id="Icons" transform="translate(-565.000000, -358.000000)" fill-rule="nonzero">
            <g id="DNA" transform="translate(565.000000, 358.000000)">
                <path d="M96.1692509,131.046809 C96.1384632,115.163972 91.4431979,101.398582 81.8176639,88.9670922 C73.5140237,78.2425532 62.6047274,69.7886525 52.0541501,61.612766 C31.9116511,46.0036879 12.8857004,31.2598582 12.8857004,2.12765957 C12.8857004,0.952624113 11.9372133,0 10.7672808,0 L2.29360214,0 C1.12366958,0 0.175182482,0.952624113 0.175182482,2.12765957 C0.175182482,18.0768794 4.86960045,31.8933333 14.5264871,44.3659574 C21.1368038,52.9035461 29.3994878,60.0008511 37.8175226,66.6660993 C29.943498,72.8961702 21.3141861,80.2005674 14.5264871,88.9673759 C4.86960045,101.44 0.175182482,115.25617 0.175182482,131.205674 C0.175182482,132.380709 1.12366958,133.333333 2.29360214,133.333333 L10.7672808,133.333333 C11.9372133,133.333333 12.8857004,132.380709 12.8857004,131.205674 C12.8857004,128.996312 12.9947284,126.872057 13.202616,124.822695 L28.2674044,124.822695 C29.4373369,124.822695 30.385824,123.870071 30.385824,122.695035 C30.385824,121.52 29.4373369,120.567376 28.2674044,120.567376 L13.7940788,120.567376 C14.6109414,116.002837 15.9613633,111.827801 17.7631499,107.939007 L70.2262364,107.939007 C71.396169,107.939007 72.3446561,106.986383 72.3446561,105.811348 C72.3446561,104.636312 71.396169,103.683688 70.2262364,103.683688 L19.9728028,103.683688 C22.5855204,99.1605674 25.835741,95.0130496 29.578,91.0550355 L55.4374075,91.0550355 C56.6073401,91.0550355 57.5558272,90.1024113 57.5558272,88.9273759 C57.5558272,87.7523404 56.6073401,86.7997163 55.4374075,86.7997163 L33.8541007,86.7997163 C38.1895171,82.7160284 43.0203613,78.769078 48.1734877,74.737305 C66.810779,89.2939007 83.4590154,103.95461 83.4590154,131.205674 C83.4590154,132.380709 84.4075025,133.333333 85.5774351,133.333333 L94.0511137,133.333333 C95.2266954,133.333333 96.1751825,132.380709 96.1751825,131.205674 C96.1751825,131.15234 96.1732053,131.099291 96.1692509,131.046809 L96.1692509,131.046809 Z M27.1966138,87.3296454 C27.1045332,87.4107801 27.018949,87.4990071 26.942121,87.5948936 C24.6053629,90.0266667 22.4160468,92.5526241 20.4309463,95.2187234 C18.1602829,98.2689362 16.2260246,101.411915 14.6185677,104.662128 C14.5352432,104.792057 14.4666064,104.931915 14.4126573,105.079149 C11.7925959,110.486241 10.0778058,116.19234 9.24399581,122.268369 C9.22648354,122.354894 9.21603267,122.443972 9.20925373,122.534184 C8.92566795,124.668936 8.74828561,126.848511 8.68049618,129.078014 L4.44224459,129.078014 C4.84248467,115.004823 9.24625546,102.719149 17.871048,91.5795745 C24.6067752,82.8805674 33.364887,75.5764539 41.2555765,69.3636879 C42.2684636,70.1523404 43.2810682,70.938156 44.2902833,71.7202837 C44.4317937,71.8300709 44.5730217,71.9395745 44.7145321,72.049078 C38.4646292,76.9500709 32.4539665,81.8998582 27.1966138,87.3296454 L27.1966138,87.3296454 Z M87.6633723,129.078014 C87.261155,115.908085 83.0952121,104.403121 74.961328,93.969078 C67.3703242,84.230922 57.4165764,76.5174468 46.8775798,68.3506383 C36.5368673,60.3370213 25.8439323,52.0507801 17.871048,41.7537589 C9.24625546,30.6141844 4.84248467,18.3285106 4.44224459,4.25531915 L8.68134355,4.25531915 C9.08356083,17.4252482 13.2495037,28.9302128 21.3833878,39.3642553 C28.9743916,49.1024113 38.9281394,56.8158865 49.4665711,64.9821277 C59.8072836,72.995461 70.5002187,81.2817021 78.4733854,91.5795745 C87.0984604,102.719149 91.5022312,115.004823 91.9024713,129.078014 L87.6633723,129.078014 Z" id="Shape" fill="#9013FE"></path>
                <path d="M26.3974047,25.3333333 C25.1701454,25.3333333 24.1751825,26.3780444 24.1751825,27.6666667 C24.1751825,28.9552889 25.1701454,30 26.3974047,30 L35.2862936,30 C36.5135529,30 37.5085158,28.9552889 37.5085158,27.6666667 C37.5085158,26.3780444 36.5135529,25.3333333 35.2862936,25.3333333 L26.3974047,25.3333333 Z" id="Path" fill="#9013FE"></path>
                <path d="M18.9858542,12.6302233 L82.4152438,12.6302233 C81.6096696,17.1308929 80.2720963,21.2588222 78.4505496,25.1245985 L42.4301209,25.1245985 C41.2460584,25.1245985 40.2861158,26.0671148 40.2861158,27.2296825 C40.2861158,28.3922502 41.2460584,29.3347665 42.4301209,29.3347665 L76.2216419,29.3347665 C73.6171046,33.7506713 70.345067,37.8516556 66.4887165,41.8294224 L40.2458085,41.8294224 C39.061746,41.8294224 38.1018035,42.7719386 38.1018035,43.9345063 C38.1018035,45.0970741 39.061746,46.0395903 40.2458085,46.0395903 L62.1523948,46.0395903 C59.3917738,48.5752342 56.3987428,51.0881431 53.195885,53.6302425 C52.2751063,54.3611277 52.1318868,55.6864886 52.8762854,56.590552 C53.620398,57.4946154 54.9708354,57.635235 55.8913282,56.9043499 C65.438154,49.3268895 75.3817637,40.5475665 81.531342,28.4071261 C81.6405433,28.2485431 81.7268752,28.0739615 81.7891943,27.8887141 C84.2662348,22.8718779 86.0952141,17.2852657 86.9876919,10.9792761 C87.0117048,10.8720571 87.0259982,10.7617507 87.0325731,10.6491989 C87.3135807,8.58088372 87.4962499,6.43762753 87.5662874,4.21016799 L91.8565845,4.21016799 C91.4515105,18.1340356 86.9942669,30.2893519 78.2653076,41.3107297 C73.7997738,46.9489866 68.0384034,52.5496328 60.1335996,58.9361769 C59.2193958,59.6749211 59.0878969,61.0014047 59.8402997,61.8992932 C60.264241,62.4050747 60.878284,62.6666667 61.4971868,62.6666667 C61.9765864,62.6666667 62.4591304,62.5094868 62.8582012,62.1872686 C71.0139965,55.5977944 76.9851936,49.7855171 81.6502628,43.8952114 C91.4240672,31.5549284 96.1751825,17.885355 96.1751825,2.10508399 C96.1751825,0.942516274 95.2152399,0 94.0311774,0 L85.4551571,0 C84.2710946,0 83.311152,0.942516274 83.311152,2.10508399 C83.311152,4.29072254 83.2065246,6.39271907 83.0021294,8.42033598 L18.9858542,8.42033598 C17.8017917,8.42033598 16.8418491,9.36285225 16.8418491,10.52542 C16.8418491,11.6879877 17.8017917,12.6302233 18.9858542,12.6302233 L18.9858542,12.6302233 Z" id="Path" fill="#50E38C"></path>
                <path d="M76.0859967,120 L36.9310349,120 C35.7772472,120 34.8418491,121.044711 34.8418491,122.333333 C34.8418491,123.621956 35.7772472,124.666667 36.9310349,124.666667 L76.0859967,124.666667 C77.2397844,124.666667 78.1751825,123.621956 78.1751825,122.333333 C78.1751825,121.044711 77.2397844,120 76.0859967,120 Z" id="Path" fill="#50E38C"></path>
            </g>
        </g>
    </g>
</svg>