<?xml version="1.0" standalone="no"?>
<!DOCTYPE svg PUBLIC "-//W3C//DTD SVG 20010904//EN"
 "http://www.w3.org/TR/2001/REC-SVG-20010904/DTD/svg10.dtd">
<svg version="1.0" xmlns="http://www.w3.org/2000/svg"
 width="4303.000000pt" height="1135.000000pt" viewBox="0 0 4303.000000 1135.000000"
 preserveAspectRatio="xMidYMid meet">

<g transform="translate(0.000000,1135.000000) scale(0.100000,-0.100000)"
fill="#000000" stroke="none">
<path d="M5385 9823 c-27 -2 -122 -12 -210 -23 -843 -105 -1569 -424 -2281
-1002 -280 -227 -385 -390 -371 -576 5 -62 13 -92 48 -162 37 -74 58 -101 168
-210 466 -464 1223 -882 1787 -986 74 -14 145 -18 279 -18 161 1 190 4 278 27
313 83 557 314 781 737 220 416 428 1136 496 1711 19 165 -18 282 -122 381
-27 26 -73 59 -103 73 -102 50 -139 55 -430 53 -148 -1 -292 -3 -320 -5z"/>
<path d="M30590 8395 c-396 -48 -783 -186 -1099 -392 -351 -228 -642 -576
-821 -983 -123 -279 -209 -627 -239 -967 -25 -279 -10 -712 35 -978 90 -545
299 -1046 582 -1396 88 -109 283 -293 390 -369 308 -217 654 -338 1112 -386
217 -22 624 -15 795 14 384 67 682 195 966 414 361 279 631 702 784 1231 16
53 26 99 24 101 -8 8 -682 177 -691 174 -6 -2 -21 -46 -35 -98 -60 -235 -172
-484 -288 -645 -248 -344 -612 -549 -1059 -596 -131 -14 -367 -7 -485 15 -435
80 -805 303 -1029 621 -218 308 -348 757 -383 1315 -27 436 29 872 162 1256
239 694 814 1084 1596 1084 704 -1 1162 -333 1398 -1015 16 -44 31 -83 34 -87
6 -6 679 147 689 157 10 10 -84 260 -148 392 -118 245 -236 409 -427 593 -65
63 -155 141 -200 173 -292 208 -634 333 -1025 376 -129 15 -507 12 -638 -4z"/>
<path d="M12920 5660 l0 -2660 350 0 350 0 2 1252 3 1253 1383 3 1382 2 0
-1255 0 -1255 355 0 355 0 0 2660 0 2660 -355 0 -355 0 0 -1090 0 -1090 -1385
0 -1385 0 0 1090 0 1090 -350 0 -350 0 0 -2660z"/>
<path d="M18283 6613 c4 -1767 4 -1776 47 -2083 71 -502 215 -835 475 -1095
358 -358 861 -525 1582 -525 619 0 1040 120 1400 399 333 257 513 564 608
1036 72 360 75 434 75 2313 l0 1662 -349 0 -350 0 -4 -1707 c-4 -1814 -3
-1774 -52 -2053 -59 -340 -172 -581 -340 -724 -202 -173 -467 -260 -872 -288
-506 -35 -905 82 -1164 341 -177 178 -260 366 -309 699 -37 257 -40 398 -40
2085 l0 1647 -356 0 -355 0 4 -1707z"/>
<path d="M23620 5660 l0 -2661 1218 4 c1255 4 1250 4 1502 47 289 49 556 154
741 292 254 189 458 529 529 884 27 131 37 371 21 497 -47 375 -243 699 -546
902 -96 64 -233 133 -335 169 -41 15 -82 29 -90 32 -9 3 22 26 79 59 414 242
641 625 641 1080 0 262 -76 500 -236 741 -191 289 -505 484 -904 563 -227 45
-218 44 -1442 48 l-1178 4 0 -2661z m2215 2020 c408 -37 592 -124 730 -345
119 -189 156 -457 96 -688 -56 -214 -212 -385 -425 -468 -208 -80 -322 -89
-1193 -89 l-713 0 0 806 0 807 693 -6 c380 -3 746 -11 812 -17z m-35 -2230
c264 -16 431 -45 591 -106 235 -88 405 -278 485 -539 26 -84 28 -103 28 -265
0 -198 -15 -273 -79 -409 -122 -256 -315 -396 -657 -474 -90 -20 -120 -21
-965 -24 l-873 -4 0 915 0 916 648 0 c356 0 726 -5 822 -10z"/>
<path d="M34480 5783 c-535 -1396 -995 -2593 -1021 -2661 l-47 -122 375 2 375
3 291 803 291 802 1114 -2 1115 -3 308 -800 308 -800 401 -3 c381 -2 402 -1
395 15 -3 10 -493 1207 -1087 2661 l-1081 2642 -381 0 -382 0 -974 -2537z
m1389 1815 c87 -290 186 -563 660 -1820 121 -323 221 -590 221 -593 0 -3 -405
-5 -901 -5 l-900 0 7 23 c3 12 140 380 304 817 164 437 326 881 360 985 59
183 156 543 181 673 6 34 15 62 18 62 4 0 27 -64 50 -142z"/>
<path d="M38960 5660 l0 -2660 355 0 355 0 0 1079 0 1079 843 5 c682 4 867 8
974 20 413 50 685 134 918 285 81 53 239 208 305 300 203 282 301 573 317 937
20 479 -157 944 -467 1222 -164 147 -368 250 -622 312 -308 76 -416 81 -1800
81 l-1178 0 0 -2660z m2275 2030 c364 -13 479 -33 626 -111 185 -99 351 -320
410 -544 30 -113 37 -355 15 -481 -56 -326 -245 -556 -544 -664 -110 -40 -295
-76 -455 -89 -75 -7 -435 -11 -873 -11 l-744 0 0 955 0 955 648 0 c356 -1 769
-5 917 -10z"/>
<path d="M4920 4380 c-328 -40 -734 -225 -1167 -531 -256 -182 -598 -474 -804
-685 -79 -82 -114 -126 -140 -179 -32 -66 -34 -75 -34 -175 0 -97 2 -110 31
-170 50 -105 102 -160 266 -283 678 -508 1365 -780 2208 -874 194 -21 741 -24
895 -4 266 34 405 112 483 269 l37 76 -1 156 c0 136 -4 173 -32 299 -155 700
-476 1359 -847 1737 -278 282 -572 402 -895 364z"/>
</g>
</svg>
